<?xml version="1.0" standalone="no"?><!DOCTYPE svg PUBLIC "-//W3C//DTD SVG 1.1//EN" "http://www.w3.org/Graphics/SVG/1.1/DTD/svg11.dtd" ><svg xmlns="http://www.w3.org/2000/svg"><metadata></metadata><defs><font id="dianyingim" horiz-adv-x="3789"><font-face font-family="dianyingim" font-weight="400" font-stretch="normal" units-per-em="1024" panose-1="0 0 0 0 0 0 0 0 0 0" ascent="960" descent="-64" x-height="0" bbox="0 -159 3789 960" underline-thickness="0" underline-position="0" unicode-range="U+0000-fffd" /><missing-glyph horiz-adv-x="1024"  /><glyph glyph-name=".null" unicode="" d="M0 0 l0 0 l0 0 l0 0 Z" /><glyph glyph-name=".null" unicode="" d="M0 0 l0 0 l0 0 l0 0 Z" /><glyph glyph-name="space" unicode=" " d="M0 0 l0 0 l0 0 l0 0 Z" /><glyph glyph-name="" unicode="&#xe900;" d="M135 957 q7 3 14.5 3 q7.5 0 14.5 -3 q42 -19 84 -38.5 q42 -19.5 85 -38.5 q6 -2 11.5 -6.5 q5.5 -4.5 8.5 -11.5 q6 -12 2 -26 q-4 -14 -16 -21 q-40 -24 -80 -49 q-40 -25 -79 -49 q-13 -8 -28.5 -4 q-15.5 4 -22.5 17 q-6 12 -3 26.5 q3 14.5 15 21.5 q26 16 51.5 31.5 q25.5 15.5 50.5 31.5 q-27 13 -54 25 q-27 12 -54 24 q-8 4 -14 11.5 q-6 7.5 -8 16.5 q-2 12 4.5 23.5 q6.5 11.5 17.5 15.5 l0 0 l0 0 ZM863 951 q8 3 15.5 6.5 q7.5 3.5 15.5 2.5 q11 -1 20.5 -8.5 q9.5 -7.5 12.5 -18.5 q3 -12 -2.5 -24.5 q-5.5 -12.5 -16.5 -17.5 q-28 -12 -55.5 -24.5 q-27.5 -12.5 -54.5 -25.5 q25 -15 50.5 -31 q25.5 -16 50.5 -32 q10 -6 14.5 -18 q4.5 -12 0.5 -23 q-4 -16 -20.5 -23 q-16.5 -7 -31.5 2 q-40 25 -80 49.5 q-40 24.5 -80 49.5 q-8 5 -12.5 13.5 q-4.5 8.5 -4.5 17.5 q0 11 5.5 20 q5.5 9 15.5 13 q39 18 78.5 36 q39.5 18 78.5 36 l0 0 l0 0 ZM468 500 q65 1 131 -2 q65 -4 130 -12.5 q65 -8.5 129 -22.5 q64 -14 127 -33 q5 -1 11 -3 q6 -2 9 -7 q4 -5 4 -12 q0 -7 0 -13 q-2 -56 -17 -110.5 q-15 -54.5 -42 -103.5 q-26 -47 -62 -87.5 q-36 -40.5 -80 -71.5 q-49 -34 -106 -55.5 q-57 -21.5 -116 -27.5 q-20 -2 -39 -2.5 q-19 -0.5 -39 -0.5 q-26 0 -52 1.5 q-26 1.5 -52 6.5 q-55 10 -106 32.5 q-51 22.5 -95 55.5 q-42 32 -76 72 q-34 40 -59 87 q-26 50 -39.5 106 q-13.5 56 -13.5 113 q0 6 3.5 10.5 q3.5 4.5 9.5 6.5 q53 16 108 29 q54 13 109 22 q55 9 111 15 q56 5 112 7 l0 0 l0 0 ZM479 265 q-33 -3 -65 -11.5 q-32 -8.5 -61 -23.5 q-22 -13 -42 -29.5 q-20 -16.5 -34 -37.5 q-11 -17 -17.5 -35.5 q-6.5 -18.5 -6.5 -38.5 q0 -4 1.5 -8 q1.5 -4 4.5 -7 q52 -35 112 -53 q60 -18 122 -17 q19 0 37.5 -0.5 q18.5 -0.5 36.5 1.5 q52 4 102 21.5 q50 17.5 93 46.5 q4 2 6.5 6 q2.5 4 2.5 9 q0 16 -4.5 32.5 q-4.5 16.5 -12.5 31.5 q-13 22 -32 40.5 q-19 18.5 -41 31.5 q-46 26 -98 35.5 q-52 9.5 -104 5.5 l0 0 Z" /><glyph glyph-name="" unicode="&#xe901;" d="M512 155 q0 0 0 0 q0 0 0 0 q-15 0 -28.5 6 q-13.5 6 -23.5 16 l-439 438 q-10 10 -15.5 23.5 q-5.5 13.5 -5.5 28.5 q0 31 21.5 52.5 q21.5 21.5 51.5 21.5 q16 0 29 -6 q13 -6 23 -16 l0 0 l387 -387 l387 387 q10 8 22 12.5 q12 4.5 26 4.5 q30 0 51.5 -21.5 q21.5 -21.5 21.5 -51.5 q0 -14 -5 -26 q-5 -12 -13 -22 l0 0 l-439 -438 q-9 -10 -22.5 -16 q-13.5 -6 -28.5 -6 l0 0 l0 0 Z" /><glyph glyph-name="" unicode="&#xe902;" d="M264 232 q1 -3 0.5 -7 q-0.5 -4 -1.5 -8 l-39 -121 q-3 -8 -8.5 -14.5 q-5.5 -6.5 -13.5 -10.5 q-8 -4 -17.5 -5 q-9.5 -1 -17.5 1 l-130 35 q-18 5 -27 20 q-9 15 -4 32 q6 17 22.5 25.5 q16.5 8.5 34.5 3.5 l86 -23 l26 79 q5 15 18.5 23.5 q13.5 8.5 29.5 7.5 q17 -1 28.5 -12 q11.5 -11 12.5 -26 l0 0 ZM990 491 q5 -58 -3 -115 q-8 -57 -29 -109.5 q-21 -52.5 -53 -99.5 q-32 -48 -75 -87 q-43 -39 -93 -66 q-51 -28 -105 -43.5 q-54 -15.5 -112 -18.5 q-57 -3 -114 8 q-23 4 -36.5 23.5 q-13.5 19.5 -9.5 42.5 q4 24 23.5 37.5 q19.5 13.5 43.5 8.5 q60 -11 119 -3 q60 8 112.5 33 q52.5 25 96.5 66 q44 40 74 94 q30 53 41 112 q12 59 5 117 q-7 58 -31 113 q-24 54 -66 100 q-41 45 -93 75 q-52 29 -109 41.5 q-57 12.5 -117 6.5 q-60 -5 -116 -30 q-56 -25 -101 -65 q-44 -40 -74 -90 q-30 -50 -44 -108 q-13 -59 -8 -120 q4 -46 19 -89.5 q15 -43.5 40 -82.5 q10 -13 12 -29.5 q2 -16.5 -5 -31.5 q-7 -15 -20.5 -24 q-13.5 -9 -30.5 -9 q-17 0 -31 8.5 q-14 8.5 -21 23.5 q-42 65 -61 138 q-20 73 -17.5 147 q2.5 74 26.5 145 q24 72 70 134 q46 62 108 106 q61 44 131 68 q70 24 145 26 q76 3 150 -18 q75 -21 138 -63 q62 -42 109.5 -99 q47.5 -57 76.5 -126 q29 -70 35 -147 l0 0 ZM664 503 l-222 128 q-28 16 -56 0 q-28 -16 -28 -49 l0 -255 q0 -32 28 -48 q28 -16 56 0 l222 127 q28 16 28 48.5 q0 32.5 -28 48.5 l0 0 l0 0 Z" /><glyph glyph-name="" unicode="&#xe903;" d="M790 281 q38 54 57 117 q19 63 19 129 q0 90 -34 168 q-34 79 -92.5 138 q-58.5 59 -137.5 93 q-79 34 -169 34 q-90 0 -168 -34 q-79 -34 -138 -93 q-59 -59 -93 -138 q-34 -78 -34 -168 q0 -90 34 -169 q34 -79 93 -137.5 q59 -58.5 138 -92.5 q78 -34 168 -34 q66 0 129 19 q63 19 117 57 l211 -211 q10 -11 25 -17 q15 -6 30 -6 q33 0 56 23 q23 23 23 56 q0 15 -6 30 q-6 15 -17 25 l-211 211 l0 0 ZM432 186 q-70 0 -132 27 q-63 27 -109 73.5 q-46 46.5 -73 108.5 q-27 62 -27 133 q0 70 27 132 q27 63 73 109 q46 46 109 73 q62 27 132 27 q71 0 133 -27 q62 -27 108.5 -73 q46.5 -46 73.5 -109 q27 -62 27 -132 q0 -71 -27 -133 q-27 -62 -73.5 -108.5 q-46.5 -46.5 -108.5 -73.5 q-62 -27 -133 -27 l0 0 Z" /><glyph glyph-name="" unicode="&#xe904;" d="M433 169 l-400 400 q-15 15 -24 35.5 q-9 20.5 -9 43.5 q0 46 32.5 79 q32.5 33 79.5 33 l800 0 q47 0 79.5 -33 q32.5 -33 32.5 -79 q0 -23 -9 -43.5 q-9 -20.5 -24 -35.5 l-400 -400 q-15 -15 -35.5 -24 q-20.5 -9 -43.5 -9 q-23 0 -43.5 9 q-20.5 9 -35.5 24 l0 0 l0 0 Z" /><glyph glyph-name="" unicode="&#xe905;" d="M877 584 l-584 355 q-37 22 -76 21 q-39 -2 -71 -21.5 q-32 -19.5 -52 -54.5 q-21 -35 -21 -80 l0 -712 q0 -45 21 -80 q20 -35 52 -54.5 q32 -19.5 71 -21.5 q39 -2 76 21 l584 355 q37 23 55 60 q19 36 19 76 q0 40 -19 76 q-18 37 -55 60 l0 0 Z" /><glyph glyph-name="" unicode="&#xe906;" d="M898 14 l-38 296 l205 214 l2 4 q13 25 5.5 52 q-7.5 27 -30.5 42 l-305 57 l-147 260 q-10 10 -23.5 15.5 q-13.5 5.5 -29.5 5.5 q-14 0 -27 -5 q-13 -5 -24 -14 l1 0 l-148 -261 l-299 -57 q-18 -9 -29 -26 q-11 -17 -11 -38 q0 -9 2 -16.5 q2 -7.5 5 -14.5 l0 0 l209 -218 l0 -1 q36 22 79 43 q44 21 95.5 39 q51.5 18 112.5 32 q60 14 130 23 q-77 -35 -142 -73 q-65 -38 -119 -77 q-54 -39 -98 -78 q-44 -39 -80 -76 l-16 -129 q6 -25 26.5 -41.5 q20.5 -16.5 46.5 -16.5 q3 0 5 0 q2 0 4 0 l0 0 l278 127 l276 -126 q3 -1 5.5 -1 q2.5 0 4.5 0 q27 0 47.5 17 q20.5 17 26.5 42 l0 0 l0 0 Z" /><glyph glyph-name="" unicode="&#xe907;" d="M0 -64 l192 0 q0 0 40 24 q40 24 88 168 l0 -192 l128 0 q0 0 64 24 q64 24 64 168 l0 -192 l128 0 q0 0 64 24 q64 24 64 168 l0 -192 l128 0 q0 0 10 16 q10 16 22 64 q12 48 22 136 q10 88 10 232 l-896 0 q0 0 -11 -70 q-11 -70 -29 -154 q-18 -84 -41 -154 q-23 -70 -47 -70 l0 0 ZM1024 576 q0 29 -20 46.5 q-20 17.5 -44 17.5 l-256 0 l0 256 q0 24 -17.5 44 q-17.5 20 -46.5 20 l-128 0 q-29 0 -46.5 -20 q-17.5 -20 -17.5 -44 l0 -256 l-256 0 q-24 0 -44 -17.5 q-20 -17.5 -20 -46.5 l0 -128 l896 0 l0 128 l0 0 Z" /><glyph glyph-name="" unicode="&#xe908;" d="M758 441 q0 1 0 2 q0 1 0 2 q0 9 -1.5 16.5 q-1.5 7.5 -4.5 15.5 l0 -1 l116 0 q0 -6 0 -12.5 q0 -6.5 0 -13.5 q0 -10 0 -19 q0 -9 -1 -18 l0 2 l-114 0 q-9 -22 -28.5 -36 q-19.5 -14 -43.5 -14 l0 0 q-32 0 -55 22.5 q-23 22.5 -23 55.5 q0 32 23 55 q23 23 55 23 q32 0 54.5 -23 q22.5 -23 22.5 -55 q0 -1 0 -1.5 q0 -0.5 0 -0.5 l0 0 l0 0 ZM155 415 q5 -89 35 -137 q30 -48 78 -70 q48 -22 111 -26 q62 -4 133 -4 q74 0 139 4 q65 4 114 29.5 q49 25.5 77 81.5 q28 55 28 158 q0 102 -28 157 q-28 56 -77 81.5 q-49 25.5 -114 29.5 q-65 5 -139 5 q-72 0 -136 -4 q-64 -4 -112 -28 q-48 -24 -78 -75 q-29 -52 -32 -146 l113 0 q8 22 27.5 36 q19.5 14 44.5 14 l0 0 q32 0 54.5 -23 q22.5 -23 22.5 -55 q0 -33 -22.5 -55.5 q-22.5 -22.5 -54.5 -22.5 q-25 0 -44.5 14 q-19.5 14 -27.5 36 l-112 0 l0 0 ZM697 -104 q0 -49 -55.5 -52 q-55.5 -3 -131.5 -3 q-77 -1 -132.5 2.5 q-55.5 3.5 -55.5 52.5 q0 46 55.5 47.5 q55.5 1.5 132.5 0.5 q76 1 131.5 -1 q55.5 -2 55.5 -47 ZM512 928 q152 0 249 -46 q97 -46 152.5 -115.5 q55.5 -69.5 76.5 -150.5 q21 -81 21 -151 q0 -70 -21 -152 q-21 -81 -76 -150 q-55 -69 -152 -114 q-96 -46 -248 -46 q-150 0 -247 46 q-98 45 -154 114 q-56 69 -78 151 q-22 81 -22 152 q0 71 22 152 q22 81 78 150 q56 69 153 114 q96 46 246 46 l0 0 Z" /><glyph glyph-name="" unicode="&#xe909;" d="M720 709 l74 129 q10 16 26.5 25.5 q16.5 9.5 36.5 9.5 q30 0 51 -21 q21 -21 21 -51 q0 -9 -2.5 -18.5 q-2.5 -9.5 -7.5 -17.5 l0 1 l-41 -72 q62 -14 103 -63.5 q41 -49.5 42 -114.5 l0 -1 q1 -9 1 -19 q0 -10 0 -21 q0 -62 -5.5 -122 q-5.5 -60 -15.5 -119 l1 9 q-7 -34 -15.5 -63 q-8.5 -29 -19.5 -57 l2 5 q-16 -42 -44 -77 q-28 -36 -64 -61.5 q-36 -25.5 -80 -39.5 q-43 -14 -90 -14 q0 0 0 0 q0 0 0 0 l-359 0 q0 0 0 0 q0 0 0 0 q-50 0 -95 16 q-45 15 -82.5 43 q-37.5 28 -64.5 66 q-28 38 -42 83 l0 2 q-7 20 -13 44.5 q-6 24.5 -11 50.5 l-1 6 q-12 56 -18.5 119.5 q-6.5 63.5 -6.5 129.5 q0 5 0 10 q0 5 0 10 l0 -1 q1 63 39.5 111.5 q38.5 48.5 97.5 64.5 l1 0 l-43 75 q-5 7 -7.5 16.5 q-2.5 9.5 -2.5 18.5 q0 30 21.5 51.5 q21.5 21.5 50.5 21.5 q20 0 36.5 -10 q16.5 -10 26.5 -26 l0 0 l75 -131 q50 4 107 6 q57 2 116 2 q53 0 106 -2 q53 -2 105 -5 l-9 1 l0 0 ZM487 511 q-9 6 -19.5 9.5 q-10.5 3.5 -22.5 3.5 q-30 0 -52 -22 q-22 -22 -22 -53 l0 -238 q0 0 0 0 q0 0 0 0 q0 -21 11 -38 q11 -17 28 -27 l0 0 q8 -4 17 -6.5 q9 -2.5 18 -2.5 q12 0 22.5 3.5 q10.5 3.5 19.5 9.5 l0 0 l179 119 q15 10 24 26 q9 16 9 35 q0 20 -9 36 q-9 16 -24 26 l0 0 l-179 119 l0 0 Z" /><glyph glyph-name="" unicode="&#xe90a;" d="M779 560 q-46 0 -78.5 -33 q-32.5 -33 -32.5 -79 q0 -46 32.5 -79 q32.5 -33 78.5 -33 q46 0 78.5 33 q32.5 33 32.5 79 q0 46 -32.5 79 q-32.5 33 -78.5 33 l0 0 ZM512 292 q-46 0 -79 -32.5 q-33 -32.5 -33 -78.5 q0 -46 33 -78.5 q33 -32.5 79 -32.5 q46 0 78.5 32.5 q32.5 32.5 32.5 78.5 q0 46 -32.5 78.5 q-32.5 32.5 -78.5 32.5 l0 0 ZM467 448 q0 -18 13 -31 q13 -13 32 -13 q18 0 31 13 q13 13 13 31 q0 18 -13 31 q-13 13 -31 13 q-19 0 -32 -13 q-13 -13 -13 -31 ZM512 826 q-46 0 -79 -32.5 q-33 -32.5 -33 -78.5 q0 -46 33 -78.5 q33 -32.5 79 -32.5 q46 0 78.5 32.5 q32.5 32.5 32.5 78.5 q0 46 -32.5 78.5 q-32.5 32.5 -78.5 32.5 l0 0 ZM245 560 q-47 0 -79.5 -33 q-32.5 -33 -32.5 -79 q0 -46 32.5 -79 q32.5 -33 79.5 -33 q46 0 78.5 33 q32.5 33 32.5 79 q0 46 -32.5 79 q-32.5 33 -78.5 33 l0 0 ZM800 25 l118 0 q16 0 27.5 -13 q11.5 -13 11.5 -32 q0 -18 -11.5 -31 q-11.5 -13 -27.5 -13 l-390 0 q-1 0 -2.5 0 q-1.5 0 -2.5 1 q-3 0 -5.5 -0.5 q-2.5 -0.5 -5.5 -0.5 q-106 0 -199 40 q-94 40 -163.5 109.5 q-69.5 69.5 -109.5 163.5 q-40 93 -40 199 q0 106 40 199 q40 94 109.5 163.5 q69.5 69.5 163.5 109.5 q93 40 199 40 q106 0 199 -40 q94 -40 163.5 -109.5 q69.5 -69.5 109.5 -163.5 q40 -93 40 -199 q0 -66 -16 -127 q-16 -62 -45.5 -116 q-29.5 -54 -70.5 -100 q-41 -46 -92 -80 l0 0 Z" /><glyph glyph-name="" unicode="&#xe90b;" d="M995 100 q-1 1 -1.5 1.5 q-0.5 0.5 -1.5 1.5 l-345 345 l345 344 q0 1 1 2 q1 1 2 2 l1 1 q28 28 28 67.5 q0 39.5 -28 67.5 q-1 1 -2 2 q-1 1 -2 2 q-2 1 -3 2.5 q-1 1.5 -2 2.5 l-1 -1 q-28 22 -64 20 q-36 -2 -61 -28 l-349 -348 l-344 344 q-1 0 -2 1 q-1 1 -2 1 l-1 2 q-28 27 -67.5 27 q-39.5 0 -67.5 -27 q-1 -1 -2 -2 q-1 -1 -2 -2 q-1 -2 -2.5 -3 q-1.5 -1 -2.5 -3 l1 0 q-22 -29 -20 -64.5 q2 -35.5 28 -61.5 l348 -348 l-348 -349 q-26 -25 -28 -61 q-2 -36 20 -64 l-1 -1 q1 -1 2.5 -2 q1.5 -1 2.5 -3 q1 -1 2 -2 q1 -1 2 -2 q28 -28 67.5 -28 q39.5 0 67.5 28 l1 1 q1 1 2 1.5 q1 0.5 2 1.5 l344 345 l349 -349 q25 -26 61 -27.5 q36 -1.5 64 19.5 l1 -1 q1 1 2 2.5 q1 1.5 3 3.5 q1 1 2 1.5 q1 0.5 2 1.5 q28 28 28 67.5 q0 39.5 -28 67.5 l-1 1 l0 0 Z" /><glyph glyph-name="" unicode="&#xe90c;" d="M128 192 q53 0 90.5 -37.5 q37.5 -37.5 37.5 -90.5 q0 -53 -37.5 -90.5 q-37.5 -37.5 -90.5 -37.5 l0 0 q-53 0 -90.5 37.5 q-37.5 37.5 -37.5 90.5 q0 53 37.5 90.5 q37.5 37.5 90.5 37.5 l0 0 ZM512 192 q53 0 90.5 -37.5 q37.5 -37.5 37.5 -90.5 q0 -53 -37.5 -90.5 q-37.5 -37.5 -90.5 -37.5 l0 0 q-53 0 -90.5 37.5 q-37.5 37.5 -37.5 90.5 q0 53 37.5 90.5 q37.5 37.5 90.5 37.5 l0 0 ZM896 192 q53 0 90.5 -37.5 q37.5 -37.5 37.5 -90.5 q0 -53 -37.5 -90.5 q-37.5 -37.5 -90.5 -37.5 l0 0 q-53 0 -90.5 37.5 q-37.5 37.5 -37.5 90.5 q0 53 37.5 90.5 q37.5 37.5 90.5 37.5 l0 0 ZM128 576 q53 0 90.5 -37.5 q37.5 -37.5 37.5 -90.5 q0 -53 -37.5 -90.5 q-37.5 -37.5 -90.5 -37.5 l0 0 q-53 0 -90.5 37.5 q-37.5 37.5 -37.5 90.5 q0 53 37.5 90.5 q37.5 37.5 90.5 37.5 l0 0 ZM512 576 q53 0 90.5 -37.5 q37.5 -37.5 37.5 -90.5 q0 -53 -37.5 -90.5 q-37.5 -37.5 -90.5 -37.5 l0 0 q-53 0 -90.5 37.5 q-37.5 37.5 -37.5 90.5 q0 53 37.5 90.5 q37.5 37.5 90.5 37.5 l0 0 ZM896 576 q53 0 90.5 -37.5 q37.5 -37.5 37.5 -90.5 q0 -53 -37.5 -90.5 q-37.5 -37.5 -90.5 -37.5 l0 0 q-53 0 -90.5 37.5 q-37.5 37.5 -37.5 90.5 q0 53 37.5 90.5 q37.5 37.5 90.5 37.5 l0 0 ZM128 960 q53 0 90.5 -37.5 q37.5 -37.5 37.5 -90.5 q0 -53 -37.5 -90.5 q-37.5 -37.5 -90.5 -37.5 l0 0 q-53 0 -90.5 37.5 q-37.5 37.5 -37.5 90.5 q0 53 37.5 90.5 q37.5 37.5 90.5 37.5 l0 0 ZM896 960 q53 0 90.5 -37.5 q37.5 -37.5 37.5 -90.5 q0 -53 -37.5 -90.5 q-37.5 -37.5 -90.5 -37.5 l0 0 q-53 0 -90.5 37.5 q-37.5 37.5 -37.5 90.5 q0 53 37.5 90.5 q37.5 37.5 90.5 37.5 l0 0 ZM512 960 q53 0 90.5 -37.5 q37.5 -37.5 37.5 -90.5 q0 -53 -37.5 -90.5 q-37.5 -37.5 -90.5 -37.5 l0 0 q-53 0 -90.5 37.5 q-37.5 37.5 -37.5 90.5 q0 53 37.5 90.5 q37.5 37.5 90.5 37.5 l0 0 Z" /><glyph glyph-name="" unicode="&#xe90d;" d="M704 394 l-275 -276 q-11 -10 -25 -16 q-14 -6 -30 -6 q-31 0 -53.5 22.5 q-22.5 22.5 -22.5 54.5 l0 550 q0 32 22.5 54.5 q22.5 22.5 53.5 22.5 q16 0 30 -6 q14 -6 25 -16 l275 -276 q10 -10 16 -24 q6 -14 6 -30 q0 -16 -6 -30 q-6 -14 -16 -24 l0 0 l0 0 Z" /><glyph glyph-name="" unicode="&#xe90e;" d="M924 243 q0 -9 -3 -17 q-3 -8 -9 -15 l-240 -260 q-6 -7 -15 -11 q-9 -4 -19 -4 q-20 0 -33.5 14 q-13.5 14 -13.5 33 q0 0 0 0 q0 0 0 0 l0 244 q0 1 0 1 q0 0 0 0 q0 1 0 3 q0 2 0 4 l0 0 l0 627 q0 24 17.5 41.5 q17.5 17.5 41.5 17.5 q24 0 41.5 -17.5 q17.5 -17.5 17.5 -41.5 l0 0 l0 -572 l168 0 q20 0 34 -13.5 q14 -13.5 14 -33.5 l-1 0 ZM99 653 q0 9 3.5 17 q3.5 8 9.5 15 l239 260 q7 7 16 11 q9 4 19 4 q20 0 33.5 -14 q13.5 -14 13.5 -33 q0 0 0 0 q0 0 0 0 l0 -244 q0 -2 0 -4 q0 -2 0 -4 l0 -627 q0 -24 -17.5 -41.5 q-17.5 -17.5 -41.5 -17.5 q-25 0 -42 17.5 q-17 17.5 -17 41.5 l0 0 l0 572 l-168 0 q-20 0 -34 13.5 q-14 13.5 -14 33.5 l0 0 Z" /><glyph glyph-name="" unicode="&#xe90f;" d="M512 960 q70 0 140 -5 q70 -5 140 -14 q41 -5 78 -23 q37 -19 65 -47 q28 -28 47 -65 q18 -37 23 -78 q9 -70 14 -140 q5 -70 5 -140 q0 -70 -5 -140 q-5 -70 -14 -140 q-5 -41 -23 -78 q-19 -37 -47 -65 q-28 -28 -65 -47 q-37 -18 -78 -23 q-70 -9 -140 -14 q-70 -5 -140 -5 q-70 0 -140 5 q-70 5 -140 14 q-41 5 -78 23 q-37 19 -65 47 q-28 28 -47 65 q-18 37 -23 78 q-9 70 -14 140 q-5 70 -5 140 q0 70 5 140 q5 70 14 140 q5 41 23 78 q19 37 47 65 q28 28 65 47 q37 18 78 23 q70 9 140 14 q70 5 140 5 l0 0 ZM702 638 q-15 15 -36.5 15 q-21.5 0 -36.5 -15 l0 0 l-117 -118 l-117 118 q-15 15 -36.5 15 q-21.5 0 -36.5 -15 q-15 -15 -15 -36.5 q0 -21.5 15 -36.5 l0 0 l118 -117 l-118 -117 q-10 -10 -13.5 -23.5 q-3.5 -13.5 0.5 -26.5 q3 -13 13 -23 q10 -10 23 -13 q13 -4 26.5 -0.5 q13.5 3.5 23.5 13.5 l0 0 l117 118 l117 -118 q10 -10 23.5 -13.5 q13.5 -3.5 26.5 0.5 q13 3 23 13 q10 10 13 23 q4 13 0.5 26.5 q-3.5 13.5 -13.5 23.5 l0 0 l0 0 l-118 117 l118 118 q15 15 15 36 q0 21 -15 36 l0 0 Z" /><glyph glyph-name="" unicode="&#xe910;" d="M509 903 q-26 -2 -44 -21.5 q-18 -19.5 -18 -46.5 l0 0 l0 -156 l-7 -1 q-93 -13 -174 -57 q-80 -44 -139.5 -111 q-59.5 -67 -92.5 -153 q-34 -86 -34 -182 l0 0 l0 -13 q1 -64 16.5 -105 q15.5 -41 47.5 -57 q2 -1 4.5 -1.5 q2.5 -0.5 5.5 -0.5 q7 0 12 3.5 q5 3.5 8 8.5 l0 0 q23 43 71.5 79 q48.5 36 123.5 65 l21 7 q24 9 52 16.5 q28 7.5 57 13.5 l5 0 l23 4 l0 -134 q0 -28 20 -48.5 q20 -20.5 48 -20.5 q14 0 25.5 5 q11.5 5 20.5 13 l0 -1 l440 388 q10 9 16.5 22.5 q6.5 13.5 6.5 28.5 q0 15 -6.5 28.5 q-6.5 13.5 -16.5 22.5 l0 0 l-440 387 q-9 8 -20.5 13 q-11.5 5 -25.5 5 l0 0 l-6 -1 l0 0 Z" /><glyph glyph-name="" unicode="&#xe911;" d="M428 -18 q-30 0 -51.5 21.5 q-21.5 21.5 -21.5 51.5 q0 12 4 23.5 q4 11.5 11 20.5 l0 0 l262 349 l-262 349 q-7 9 -11 20.5 q-4 11.5 -4 23.5 q0 30 21.5 51.5 q21.5 21.5 51.5 21.5 q18 0 33 -8 q15 -8 25 -21 l0 0 l296 -393 q7 -9 11 -20.5 q4 -11.5 4 -23.5 q0 -12 -4 -23.5 q-4 -11.5 -11 -20.5 l0 0 l-296 -393 q-10 -13 -25 -21 q-15 -8 -33 -8 q0 0 0 0 q0 0 0 0 l0 0 l0 0 Z" /><glyph glyph-name="" unicode="&#xe912;" d="M646 410 q60 32 106 85 q46 53 73 120 q47 -57 73.5 -128 q26.5 -71 26.5 -153 q0 -45 -8 -87 q-7 -42 -21.5 -80.5 q-14.5 -38.5 -36.5 -73.5 q-22 -34 -50 -64 q-20 -20 -39.5 -37.5 q-19.5 -17.5 -37.5 -32.5 q-17 -10 -34.5 -16 q-17.5 -6 -34.5 -4 q-18 0 -32.5 4.5 q-14.5 4.5 -27.5 9.5 q-42 27 -76 64 q-35 37 -59 82 q-24 45 -37 96 q-13 51 -13 106 l0 26 q-40 -35 -61.5 -83.5 q-21.5 -48.5 -21.5 -105.5 q0 -62 27 -114.5 q27 -52.5 72 -87.5 q-69 6 -130 38 q-61 32 -106.5 82.5 q-45.5 50.5 -71.5 116.5 q-27 66 -27 141 q0 42 17.5 107 q17.5 65 62.5 125 q25 32 56 57 q32 25 66.5 53.5 q34.5 28.5 69.5 64.5 q36 37 70 93 q17 28 26 64.5 q9 36.5 14 81.5 q42 -22 74 -49.5 q32 -27.5 55 -59.5 q17 -23 31.5 -52 q14.5 -29 24.5 -61 q3 -3 5 -7 q2 -4 2 -6 q7 -25 11.5 -52 q4.5 -27 4.5 -84 q3 -50 -8.5 -94.5 q-11.5 -44.5 -34.5 -84.5 l0 0 Z" /><glyph glyph-name="" unicode="&#xe913;" d="M439 874 q41 -29 72 -75 q30 -46 47.5 -102 q17.5 -56 19.5 -117 q2 -62 -13 -123 l-36 -143 l127 75 q60 34 89.5 90.5 q29.5 56.5 41.5 107.5 q43 -48 66 -109.5 q23 -61.5 23 -130.5 q0 -61 -20 -117 q-20 -57 -56 -103 q-36 -46 -86 -79 q-50 -33 -110 -49 q-85 83 -117.5 154.5 q-32.5 71.5 -45.5 135.5 l-33 163 l-82 -145 q-34 -62 -36 -128 q-2 -66 8 -123 q-34 25 -62 58 q-28 32 -47.5 69.5 q-19.5 37.5 -30.5 78.5 q-10 42 -10 85 q0 73 44.5 133.5 q44.5 60.5 92.5 106.5 q5 4 9.5 8.5 q4.5 4.5 9.5 8.5 q40 37 82 93 q42 56 53 177 l0 0 ZM405 960 q-8 0 -16 -9 q-8 -9 -9 -23 q-3 -146 -47.5 -199.5 q-44.5 -53.5 -90.5 -96.5 q-29 -28 -57 -60 q-28 -32 -50 -67 q-22 -35 -36 -75 q-13 -39 -13 -83 q0 -67 20 -129 q20 -61 57 -112.5 q37 -51.5 87 -90.5 q51 -39 111 -62 q3 -1 6 -2 q3 -1 5 -1 q11 0 11.5 11.5 q0.5 11.5 -3.5 20.5 q-8 30 -17 66 q-8 36 -11 75 q-3 39 2 78 q6 40 26 76 q8 -38 21 -78 q12 -39 34 -80.5 q22 -41.5 55 -85.5 q34 -43 83 -90 q5 -3 12 -5 q7 -2 14 -2 q4 0 8.5 0.5 q4.5 0.5 9.5 1.5 q69 18 128 56 q59 38 102 92 q43 54 67 121 q24 66 24 140 q0 53 -11 102 q-12 49 -34.5 92.5 q-22.5 43.5 -54.5 80.5 q-31 37 -72 66 q-4 3 -9 5.5 q-5 2.5 -9 2.5 q-5 0 -8 -3.5 q-3 -3.5 -3 -12.5 q-2 -57 -25.5 -129 q-23.5 -72 -86.5 -109 q20 79 14 161 q-6 82 -35 152.5 q-29 70.5 -78 124.5 q-49 54 -115 79 q-1 0 -2.5 0.5 q-1.5 0.5 -3.5 0.5 l0 0 l0 0 ZM473 711 l-124 -171 q45 34 83 81 q38 47 41 90 l0 0 l0 0 Z" /><glyph glyph-name="" unicode="&#xe914;" d="M1024 448 q0 106 -40 199 q-40 94 -109.5 163.5 q-69.5 69.5 -163.5 109.5 q-93 40 -199 40 q-106 0 -199 -40 q-94 -40 -163.5 -109.5 q-69.5 -69.5 -109.5 -163.5 q-40 -93 -40 -199 q0 -106 40 -199 q40 -94 109.5 -163.5 q69.5 -69.5 163.5 -109.5 q93 -40 199 -40 q106 0 199 40 q94 40 163.5 109.5 q69.5 69.5 109.5 163.5 q40 93 40 199 ZM791 541 q39 0 66 -27 q27 -27 27 -66 q0 -39 -27 -66 q-27 -27 -66 -27 q-38 0 -65.5 27 q-27.5 27 -27.5 66 q0 39 27.5 66 q27.5 27 65.5 27 ZM233 355 q-39 0 -66 27 q-27 27 -27 66 q0 39 27 66 q27 27 66 27 q38 0 65.5 -27 q27.5 -27 27.5 -66 q0 -39 -27.5 -66 q-27.5 -27 -65.5 -27 l0 0 ZM419 448 q0 39 27 66 q27 27 66 27 q39 0 66 -27 q27 -27 27 -66 q0 -39 -27 -66 q-27 -27 -66 -27 q-39 0 -66 27 q-27 27 -27 66 Z" /><glyph glyph-name="" unicode="&#xe915;" d="M1092 148 l-427 727 q-17 33 -47 49.5 q-30 16.5 -63 16.5 q-33 0 -63.5 -16.5 q-30.5 -16.5 -46.5 -49.5 l-428 -727 q-36 -62 -0.5 -127.5 q35.5 -65.5 111.5 -65.5 l850 0 q76 0 113.5 65.5 q37.5 65.5 0.5 127.5 l0 0 ZM590 166 q-13 -13 -33.5 -13 q-20.5 0 -36.5 13 q-7 7 -10.5 16 q-3.5 9 -3.5 19 q0 10 3.5 19.5 q3.5 9.5 10.5 16.5 q13 13 33.5 13 q20.5 0 36.5 -13 q7 -7 10 -16.5 q3 -9.5 3 -19.5 q0 -10 -3 -19 q-3 -9 -10 -16 ZM603 347 q0 -17 -12 -26.5 q-12 -9.5 -32 -9.5 l-9 0 q-16 0 -30 11 q-14 11 -14 25 l0 229 q0 16 12.5 25.5 q12.5 9.5 31.5 9.5 l9 0 q17 0 30.5 -11 q13.5 -11 13.5 -24 l0 -229 Z" /><glyph glyph-name="" unicode="&#xe916;" d="M640 127 q9 0 17.5 -1.5 q8.5 -1.5 15.5 -5.5 q1 0 2 -1 q1 -1 2 -1 l187 -122 q10 -6 12 -13.5 q2 -7.5 -4 -15.5 q-6 -7 -17.5 -11 q-11.5 -4 -25.5 -4 l-373 0 q-14 0 -25.5 4 q-11.5 4 -17.5 11 q-6 8 -4 15.5 q2 7.5 12 13.5 l187 122 q6 4 14 6 q8 2 18 3 l0 0 l0 0 ZM1168 944 q49 0 83 -34 q34 -34 34 -82 l0 -643 q0 -48 -34 -82.5 q-34 -34.5 -83 -34.5 l-307 0 l-151 99 q-3 1 -5.5 2.5 q-2.5 1.5 -4.5 2.5 q-12 6 -25 9.5 q-13 3.5 -26 3.5 l-11 0 q-17 0 -32.5 -5 q-15.5 -5 -29.5 -13 l-151 -99 l-308 0 q-49 0 -83 34.5 q-34 34.5 -34 82.5 l0 643 q0 48 34 82 q34 34 83 34 l1051 0 l0 0 ZM590 678 l-257 0 q-13 0 -22.5 -9.5 q-9.5 -9.5 -9.5 -22.5 q0 -14 9.5 -23 q9.5 -9 22.5 -9 l97 0 l0 -225 q0 -13 9 -22.5 q9 -9.5 23 -9.5 q13 0 22.5 9.5 q9.5 9.5 9.5 22.5 l0 225 l96 0 q14 0 23 9.5 q9 9.5 9 22.5 q0 13 -9 22.5 q-9 9.5 -23 9.5 l0 0 ZM952 678 q-10 0 -17.5 -5 q-7.5 -5 -11.5 -13 l-100 -199 l-100 199 q-4 8 -11.5 13 q-7.5 5 -16.5 5 q-14 0 -23 -9.5 q-9 -9.5 -9 -22.5 q0 -4 0.5 -7.5 q0.5 -3.5 2.5 -7.5 l128 -256 q4 -8 12 -13 q8 -5 17 -5 q10 0 17.5 5 q7.5 5 11.5 12 l128 257 q2 4 3 7.5 q1 3.5 1 7.5 q0 9 -5 16.5 q-5 7.5 -13 12.5 l0 0 q-3 1 -6.5 2 q-3.5 1 -7.5 1 l0 0 Z" /><glyph glyph-name="" unicode="&#xe917;" d="M939 735 l-239 218 q-5 0 -7 1 q-2 1 -7 6 l-505 0 q-36 0 -72.5 -27.5 q-36.5 -27.5 -36.5 -68.5 l0 -832 q0 -41 34 -68.5 q34 -27.5 75 -27.5 l662 0 q36 0 67.5 24 q31.5 24 41.5 65 l0 689 q0 5 -4 10.5 q-4 5.5 -9 10.5 l0 0 ZM713 851 l116 -109 l-88 0 q-11 0 -19.5 8.5 q-8.5 8.5 -8.5 18.5 l0 82 l0 0 ZM884 32 q-5 -11 -15.5 -19.5 q-10.5 -8.5 -25.5 -8.5 l-662 0 q-15 0 -28 8.5 q-13 8.5 -13 19.5 l0 832 q0 11 13 19.5 q13 8.5 28 8.5 l464 0 l0 -123 q0 -41 27.5 -68.5 q27.5 -27.5 68.5 -27.5 l143 0 l0 -641 l0 0 ZM420 564 q-21 10 -38 1 q-17 -9 -17 -35 l0 -287 q0 -20 19.5 -32 q19.5 -12 35.5 -2 l232 143 q15 11 15 31.5 q0 20.5 -15 30.5 l-232 150 l0 0 Z" /><glyph glyph-name="" unicode="&#xe918;" d="M713 265 l146 0 q19 0 19 -18 l0 -146 q0 -19 -19 -19 l-146 0 q-18 0 -18 19 l0 146 q0 18 18 18 ZM567 411 l110 0 q18 0 18 -18 l0 -110 q0 -18 -18 -18 l-110 0 q-18 0 -18 18 l0 110 q0 18 18 18 l0 0 ZM896 82 l110 0 q18 0 18 -18 l0 -110 q0 -18 -18 -18 l-110 0 q-18 0 -18 18 l0 110 q0 18 18 18 l0 0 ZM933 411 l73 0 q18 0 18 -18 l0 -73 q0 -18 -18 -18 l-73 0 q-19 0 -19 18 l0 73 q0 18 19 18 l0 0 ZM567 46 l73 0 q18 0 18 -19 l0 -73 q0 -18 -18 -18 l-73 0 q-18 0 -18 18 l0 73 q0 19 18 19 l0 0 ZM951 960 l-329 0 q-31 0 -52 -21.5 q-21 -21.5 -21 -51.5 l0 0 l0 -329 q0 -31 21 -52 q21 -21 52 -21 l0 0 l329 0 q30 0 51.5 21 q21.5 21 21.5 52 l0 0 l0 329 q0 30 -21.5 51.5 q-21.5 21.5 -51.5 21.5 l0 0 ZM878 649 q0 -7 -5.5 -12.5 q-5.5 -5.5 -13.5 -5.5 l0 0 l-146 0 q-7 0 -12.5 5.5 q-5.5 5.5 -5.5 12.5 l0 0 l0 146 q0 8 5.5 13.5 q5.5 5.5 12.5 5.5 l0 0 l146 0 q8 0 13.5 -5.5 q5.5 -5.5 5.5 -13.5 l0 0 l0 -146 ZM402 960 l-329 0 q-30 0 -51.5 -21.5 q-21.5 -21.5 -21.5 -51.5 l0 0 l0 -329 q0 -31 21.5 -52 q21.5 -21 51.5 -21 l0 0 l329 0 q31 0 52 21 q21 21 21 52 l0 0 l0 329 q0 30 -21 51.5 q-21 21.5 -52 21.5 l0 0 l0 0 ZM329 649 q0 -7 -5.5 -12.5 q-5.5 -5.5 -12.5 -5.5 l0 0 l-146 0 q-8 0 -13.5 5.5 q-5.5 5.5 -5.5 12.5 l0 0 l0 146 q0 8 5.5 13.5 q5.5 5.5 13.5 5.5 l0 0 l146 0 q7 0 12.5 -5.5 q5.5 -5.5 5.5 -13.5 l0 0 l0 -146 ZM402 411 l-329 0 q-30 0 -51.5 -21 q-21.5 -21 -21.5 -52 l0 0 l0 -329 q0 -30 21.5 -51.5 q21.5 -21.5 51.5 -21.5 l0 0 l329 0 q31 0 52 21.5 q21 21.5 21 51.5 l0 0 l0 329 q0 31 -21 52 q-21 21 -52 21 l0 0 l0 0 ZM329 101 q0 -8 -5.5 -13.5 q-5.5 -5.5 -12.5 -5.5 l0 0 l-146 0 q-8 0 -13.5 5.5 q-5.5 5.5 -5.5 13.5 l0 0 l0 146 q0 7 5.5 12.5 q5.5 5.5 13.5 5.5 l0 0 l146 0 q7 0 12.5 -5.5 q5.5 -5.5 5.5 -12.5 l0 0 l0 -146 Z" /><glyph glyph-name="" unicode="&#xe919;" d="M475 156 l-361 362 q-15 15 -15 36 q0 21 15 36 q14 15 35.5 15 q21.5 0 36.5 -15 l274 -274 l0 593 q0 21 15.5 36 q15.5 15 36.5 15 q21 0 36 -15 q15 -15 15 -36 l0 -593 l275 273 q15 15 36.5 15 q21.5 0 35.5 -15 q15 -14 15 -35.5 q0 -21.5 -15 -36.5 l-362 -362 q-1 -2 -3.5 -3.5 q-2.5 -1.5 -4.5 -3.5 l-3 -1 q-2 -1 -3 -2 q-1 -1 -2 -1 q-2 0 -3 -0.5 q-1 -0.5 -3 -0.5 q-1 -1 -2 -1.5 q-1 -0.5 -2 -0.5 q-3 0 -5 -0.5 q-2 -0.5 -5 -0.5 q-3 0 -5.5 0.5 q-2.5 0.5 -5.5 0.5 q-1 0 -2 0.5 q-1 0.5 -2 1.5 q-1 0 -2.5 0.5 q-1.5 0.5 -2.5 1.5 q-2 0 -3 1 q-1 1 -2 1 l-4 2 q-2 2 -4 3.5 q-2 1.5 -4 3.5 l0 0 ZM870 38 q21 0 36 -15 q15 -15 15 -36 q0 -21 -15 -36 q-15 -15 -36 -15 l-717 0 q-21 0 -36 15 q-15 15 -15 36 q0 21 15 36 q15 15 36 15 l717 0 l0 0 Z" /><glyph glyph-name="" unicode="&#xe91a;" d="M448 172 l-74 -73 q-20 -21 -47 -33 q-27 -12 -58 -12 q0 0 0 0 q0 0 -1 0 l0 0 q-28 0 -56 11.5 q-28 11.5 -49 33.5 q-20 20 -32 47.5 q-12 27.5 -12 57.5 q0 31 12 58.5 q12 27.5 32 47.5 l0 0 l176 177 q20 20 47 32 q27 12 58 12 q0 0 0.5 0 q0.5 0 0.5 0 l0 0 q29 0 56.5 -11.5 q27.5 -11.5 48.5 -32.5 q17 -17 42.5 -17 q25.5 0 44.5 17 q17 16 17 41.5 q0 25.5 -17 44.5 q-37 37 -86 58 q-49 21 -105 21 q-56 0 -105 -21 q-49 -21 -85 -58 l-177 -176 q-36 -37 -57.5 -86 q-21.5 -49 -21.5 -105 q0 -56 21.5 -105 q21.5 -49 57.5 -86 l0 0 q37 -36 86 -57.5 q49 -21.5 105 -21.5 q56 0 105 21.5 q49 21.5 86 57.5 l73 74 q17 17 17 42 q0 25 -17 45 q-19 14 -44 13.5 q-25 -0.5 -42 -17.5 l0 0 ZM945 881 q-37 36 -86 57.5 q-49 21.5 -105 21.5 q-56 0 -105 -21.5 q-49 -21.5 -86 -57.5 l-73 -74 q-17 -17 -17 -42 q0 -25 17 -45 q16 -16 41.5 -16 q25.5 0 44.5 16 l74 74 q20 21 47 33 q27 12 58 12 q0 0 0 0 q0 0 1 0 l0 0 q28 0 56 -11.5 q28 -11.5 49 -33.5 q20 -20 32 -47.5 q12 -27.5 12 -58.5 q0 -30 -12 -57.5 q-12 -27.5 -32 -47.5 l-176 -177 q-20 -20 -47 -32.5 q-27 -12.5 -58 -12.5 q0 0 -0.5 0 q-0.5 0 -0.5 0 l0 0 q-29 0 -56.5 12 q-27.5 12 -48.5 33 q-17 17 -42.5 17 q-25.5 0 -44.5 -17 q-8 -8 -12.5 -18.5 q-4.5 -10.5 -4.5 -22.5 q0 -11 3.5 -21 q3.5 -10 10.5 -18 l0 0 l3 -3 q37 -37 86 -58 q49 -21 105 -21 q56 0 105 21 q49 21 85 58 l177 176 q39 40 59 90 q20 50 20 102 q0 52 -20 102 q-20 49 -59 88 l0 0 Z" /><glyph glyph-name="" unicode="&#xe91b;" d="M976 59 q20 0 34 -17 q14 -17 14 -41 q0 -23 -14 -40 q-14 -17 -34 -17 l0 0 l-928 0 q-20 0 -34 17 q-14 17 -14 40 q0 24 14 41 q14 17 34 17 l0 0 l928 0 ZM652 952 q32 0 54.5 -23 q22.5 -23 22.5 -54 l0 0 l0 -187 l142 0 q24 0 43 -13 q19 -13 28 -34 q9 -22 4.5 -45 q-4.5 -23 -20.5 -39 l0 0 l-341 -339 q-30 -30 -72 -30 q-42 0 -72 30 l0 0 l-341 339 q-16 16 -20.5 39 q-4.5 23 4.5 45 q9 21 28 34 q19 13 43 13 l0 0 l141 0 l0 187 q0 31 23 54 q23 23 55 23 l0 0 l278 0 Z" /><glyph glyph-name="" unicode="&#xe91c;" d="M526 182 q6 7 14.5 10.5 q8.5 3.5 17.5 3.5 q10 0 18.5 -3.5 q8.5 -3.5 14.5 -10.5 l167 -167 q7 -6 10.5 -14.5 q3.5 -8.5 3.5 -17.5 q0 -20 -13.5 -33.5 q-13.5 -13.5 -33.5 -13.5 l-333 0 q-20 0 -33.5 13.5 q-13.5 13.5 -13.5 33.5 q0 9 3.5 17.5 q3.5 8.5 10.5 14.5 l0 0 l167 167 ZM977 960 q55 0 96 -35 q41 -35 44 -87 l0 -8 l0 -625 q0 -52 -38.5 -89 q-38.5 -37 -93.5 -40 l-8 0 l-139 0 q-20 0 -33.5 13.5 q-13.5 13.5 -13.5 32.5 q0 18 12 31 q12 13 29 15 l0 0 l6 1 l139 0 q19 0 32 9.5 q13 9.5 15 22.5 l0 4 l0 625 q0 13 -11.5 24 q-11.5 11 -29.5 13 l-6 0 l-837 0 q-19 0 -32 -10 q-13 -10 -15 -23 l0 -4 l0 -625 q0 -13 11.5 -23.5 q11.5 -10.5 29.5 -12.5 l6 0 l139 0 q20 0 33.5 -14 q13.5 -14 13.5 -33 q0 -18 -12 -31 q-12 -13 -29 -15 l0 0 l-6 0 l-139 0 q-55 0 -96 35 q-41 35 -44 87 l0 7 l0 625 q0 53 38.5 90 q38.5 37 93.5 40 l8 0 l837 0 l0 0 Z" /><glyph glyph-name="" unicode="&#xe91d;" d="M1017 501 q-2 6 -5 11 q-3 5 -7 9 l0 0 l-398 392 q-18 18 -41.5 28 q-23.5 10 -50.5 10 q-26 0 -49.5 -10 q-23.5 -10 -41.5 -27 l-404 -393 q-4 -3 -6.5 -7 q-2.5 -4 -4.5 -8 l0 0 q-4 -8 -6.5 -17.5 q-2.5 -9.5 -2.5 -18.5 q0 0 0 -0.5 q0 -0.5 0 -0.5 l0 0 q0 -31 22.5 -53.5 q22.5 -22.5 54.5 -22.5 l18 0 l0 -355 q0 -39 27.5 -66 q27.5 -27 65.5 -27 l654 0 q39 0 66 27 q27 27 27 66 l0 355 l12 0 q32 0 54.5 22.5 q22.5 22.5 22.5 54.5 q0 0 0 0 q0 0 0 0 q0 8 -2 16 q-2 8 -5 15 l0 0 l0 0 l0 0 ZM644 169 l-258 0 q-27 0 -46.5 16 q-19.5 16 -19.5 38 q0 22 19.5 38 q19.5 16 46.5 16 l258 0 q27 0 46.5 -16 q19.5 -16 19.5 -38 q0 -22 -19.5 -38 q-19.5 -16 -46.5 -16 l0 0 Z" /><glyph glyph-name="" unicode="&#xe91e;" d="M991 904 q-32 0 -55 -23 q-23 -23 -23 -55 l0 -756 q0 -32 23 -55 q23 -23 55 -23 q32 0 55 23 q23 23 23 55 l0 756 q0 32 -23 55 q-23 23 -55 23 l0 0 ZM78 149 l0 598 q0 62 44 106 q44 44 106 44 q25 0 49 -8.5 q24 -8.5 44 -24.5 l1 0 l374 -299 l-1 -1 q27 -21 42 -51.5 q15 -30.5 15 -64.5 q0 -34 -15 -64.5 q-15 -30.5 -42 -51.5 l1 -1 l-374 -299 l-1 0 q-33 -27 -76 -32 q-43 -5 -82 14 q-39 18 -62 54.5 q-23 36.5 -23 80.5 l0 0 Z" /><glyph glyph-name="" unicode="&#xe91f;" d="M978 660 l-932 0 q-22 -47 -34 -100.5 q-12 -53.5 -12 -111.5 q0 -58 12.5 -112 q12.5 -54 34.5 -103 l-1 3 l932 0 q22 47 34 100.5 q12 53.5 12 111.5 q0 58 -12.5 112 q-12.5 54 -34.5 103 l1 -3 ZM301 349 l-64 0 l-18 86 q-3 14 -6 28 q-3 14 -6 30 q-3 -16 -5 -30 q-2 -14 -6 -28 l-21 -86 l-60 0 l-51 198 l52 0 l22 -99 q2 -14 4.5 -28.5 q2.5 -14.5 4.5 -29.5 q3 15 6 29.5 q3 14.5 7 28.5 l24 98 l46 0 l26 -98 q3 -14 6 -28.5 q3 -14.5 6 -29.5 q0 15 3.5 29.5 q3.5 14.5 6.5 28.5 l22 98 l48 0 l-47 -197 ZM606 349 l-64 0 l-18 86 q-3 14 -5.5 28 q-2.5 14 -5.5 30 l-1 0 q-3 -16 -5.5 -30 q-2.5 -14 -5.5 -28 l-21 -86 l-60 0 l-51 198 l52 0 l22 -99 q3 -14 5 -28.5 q2 -14.5 4 -29.5 q3 15 6 29.5 q3 14.5 7 28.5 l24 98 l46 0 l26 -98 q4 -14 6.5 -28.5 q2.5 -14.5 5.5 -29.5 l3 0 q0 15 3.5 29.5 q3.5 14.5 6.5 28.5 l21 98 l48 0 l-49 -197 ZM911 349 l-64 0 l-15 86 q-3 14 -6 28 q-3 14 -6 30 q-2 -16 -4.5 -30 q-2.5 -14 -5.5 -28 l-20 -86 l-60 0 l-51 198 l52 0 l17 -99 q3 -14 5 -28.5 q2 -14.5 5 -29.5 q3 15 5.5 29.5 q2.5 14.5 6.5 28.5 l24 98 l46 0 l27 -98 q3 -14 6 -28.5 q3 -14.5 6 -29.5 q3 15 5 29.5 q2 14.5 5 28.5 l21 98 l50 0 l-49 -197 ZM700 724 q-15 53 -35 96 q-20 44 -44 75 q-24 31 -52 48 q-27 17 -57 17 q-30 0 -57 -17 q-28 -17 -52 -48 q-24 -31 -44 -75 q-20 -43 -35 -96 l376 0 ZM324 172 q15 -53 35 -97 q20 -43 44 -74 q24 -31 52 -48 q27 -17 57 -17 q30 0 57 17 q28 17 52 48 q24 31 44 74 q20 44 35 97 l-376 0 ZM768 724 l177 0 q-24 37 -54 69 q-30 33 -64.5 59.5 q-34.5 26.5 -72.5 47.5 q-39 20 -81 34 l-4 1 q34 -45 59 -97.5 q25 -52.5 39 -109.5 l1 -4 ZM768 172 q-14 -60 -39 -113.5 q-25 -53.5 -59 -99.5 l1 2 q43 14 83 35 q39 21 73 47.5 q34 26.5 64 58.5 q29 32 52 68 l2 2 l-177 0 ZM256 172 l-175 0 q24 -37 54 -69 q29 -32 63 -59 q34 -27 73 -47 q38 -21 80 -35 l4 -1 q-34 45 -59 97.5 q-25 52.5 -39 109.5 l-1 4 l0 0 ZM256 724 q15 60 40 113.5 q25 53.5 60 99.5 l-1 -2 q-44 -14 -83 -35 q-39 -21 -73 -47.5 q-34 -26.5 -64 -58.5 q-29 -32 -53 -68 l-1 -2 l175 0 Z" /><glyph glyph-name="" unicode="&#xe920;" d="M896 576 q-26 0 -45 -19 q-19 -19 -19 -45 l0 -256 q0 -26 19 -45 q19 -19 45 -19 q26 0 45 19 q19 19 19 45 l0 256 q0 26 -19 45 q-19 19 -45 19 ZM128 576 q-26 0 -45 -19 q-19 -19 -19 -45 l0 -256 q0 -26 19 -45 q19 -19 45 -19 q26 0 45 19 q19 19 19 45 l0 256 q0 26 -19 45 q-19 19 -45 19 l0 0 ZM224 224 q0 -40 28 -68 q28 -28 68 -28 l0 0 l0 -128 q0 -26 19 -45 q19 -19 45 -19 q26 0 45 19 q19 19 19 45 l0 128 l128 0 l0 -128 q0 -26 19 -45 q19 -19 45 -19 q26 0 45 19 q19 19 19 45 l0 128 q40 0 68 28 q28 28 28 68 l0 0 l0 352 l-576 0 l0 -352 l0 0 ZM798 640 q-7 66 -41.5 120.5 q-34.5 54.5 -86.5 88.5 l-1 1 l32 64 q1 3 2 6.5 q1 3.5 1 7.5 q0 13 -9.5 22.5 q-9.5 9.5 -22.5 9.5 q-9 0 -17 -5 q-8 -5 -12 -13 l0 0 l-32 -64 l-8 3 q-22 7 -44.5 11 q-22.5 4 -46.5 4 q-24 0 -46.5 -4 q-22.5 -4 -44.5 -11 l-8 -3 l-32 64 q-4 8 -12 13 q-8 5 -17 5 q-13 0 -22.5 -9.5 q-9.5 -9.5 -9.5 -22.5 q0 -4 1 -7.5 q1 -3.5 2 -7.5 l0 1 l32 -64 q-53 -35 -87.5 -89.5 q-34.5 -54.5 -41.5 -119.5 l0 -1 l0 -32 l574 0 l0 32 l-2 0 l0 0 ZM416 704 q0 0 0 0 q0 0 0 0 q-13 0 -22.5 9.5 q-9.5 9.5 -9.5 22.5 q0 13 9.5 22.5 q9.5 9.5 22.5 9.5 l0 0 q13 0 22.5 -9.5 q9.5 -9.5 9.5 -22.5 q0 -13 -9.5 -22.5 q-9.5 -9.5 -22.5 -9.5 q0 0 0 0 q0 0 0 0 l0 0 l0 0 ZM608 704 q0 0 0 0 q0 0 0 0 q-13 0 -22.5 9.5 q-9.5 9.5 -9.5 22.5 q0 13 9.5 22.5 q9.5 9.5 22.5 9.5 l0 0 q13 0 22.5 -9.5 q9.5 -9.5 9.5 -22.5 q0 -13 -9.5 -22.5 q-9.5 -9.5 -22.5 -9.5 q0 0 0 0 q0 0 0 0 l0 0 l0 0 Z" /><glyph glyph-name="" unicode="&#xe921;" d="M681 902 q40 0 69.5 -27.5 q29.5 -27.5 32.5 -67.5 l0 -7 l0 -704 q0 -40 -27.5 -69.5 q-27.5 -29.5 -67.5 -31.5 l-7 -1 l-338 0 q-40 0 -69.5 27.5 q-29.5 27.5 -32.5 67.5 l0 7 l0 704 q0 40 27.5 69.5 q27.5 29.5 67.5 31.5 l7 1 l338 0 l0 0 ZM574 176 l-137 0 q-5 0 -9 -3.5 q-4 -3.5 -7 -10.5 q-3 -6 -4.5 -14.5 q-1.5 -8.5 -1.5 -17.5 q0 -18 6.5 -31.5 q6.5 -13.5 15.5 -13.5 l137 0 q9 0 15.5 13.5 q6.5 13.5 6.5 31.5 q0 19 -6 32 q-6 13 -16 14 ZM888 766 l34 0 q40 0 69.5 -27.5 q29.5 -27.5 32.5 -68.5 l0 -7 l0 -430 q0 -41 -27.5 -70.5 q-27.5 -29.5 -67.5 -31.5 l-7 -1 l-34 0 l0 636 l0 0 ZM136 766 l0 -636 l-34 0 q-40 0 -69.5 27.5 q-29.5 27.5 -32.5 68.5 l0 7 l0 430 q0 41 27.5 70.5 q27.5 29.5 67.5 31.5 l7 1 l34 0 l0 0 ZM594 889 q12 0 20 -18 q8 -18 8 -43 q0 -25 -8 -42.5 q-8 -17.5 -19 -17.5 l-165 0 q-12 0 -20 17.5 q-8 17.5 -8 42.5 q0 25 8 43 q8 18 20 18 l164 0 l0 0 Z" /><glyph glyph-name="" unicode="&#xe922;" d="M669 797 q29 33 45 75.5 q16 42.5 10 87.5 q-40 -1 -84 -23 q-44 -22 -73 -54 q-26 -28 -44 -71 q-18 -43 -12 -88 q45 -3 87.5 18.5 q42.5 21.5 70.5 54.5 l0 0 ZM803 417 q-1 96 55 144 q56 48 61 50 q-47 66 -108 83 q-61 17 -88 18 q-63 6 -118.5 -20.5 q-55.5 -26.5 -85.5 -26.5 q-32 0 -78 22.5 q-46 22.5 -98 21.5 q-69 -1 -127.5 -35.5 q-58.5 -34.5 -94.5 -93.5 q-35 -58 -42 -128 q-6 -70 7 -140 q13 -70 41 -135 q28 -64 62 -112 q34 -46 75 -88.5 q41 -42.5 94 -40.5 q51 2 82.5 22.5 q31.5 20.5 93.5 20.5 q62 0 92.5 -21.5 q30.5 -21.5 83.5 -19.5 q54 1 92.5 39.5 q38.5 38.5 71.5 85.5 q38 54 55 98 q17 44 18 47 q0 1 -23 12 q-22 11 -49 35.5 q-27 24.5 -49 64.5 q-23 39 -23 97 l0 0 Z" /><glyph glyph-name="" unicode="&#xe923;" d="M508 960 q-105 -2 -197 -43 q-91 -41 -159.5 -110 q-68.5 -69 -107.5 -162 q-40 -92 -40 -197 q0 -105 40 -197 q39 -93 107.5 -162 q68.5 -69 159.5 -110 q92 -41 196 -43 l1 0 q106 0 199 40 q93 41 162.5 110 q69.5 69 109.5 163 q41 93 41 199 l0 0 q0 106 -41 199 q-40 94 -109.5 163.5 q-69.5 69.5 -162.5 109.5 q-93 40 -199 40 l0 0 ZM713 254 q-7 -8 -16 -12.5 q-9 -4.5 -19 -4.5 q-8 0 -15.5 3 q-7.5 3 -13.5 7 l0 0 l-177 145 q-8 6 -12 15 q-4 9 -4 20 q0 0 0 0 q0 0 0 0 l0 0 l0 212 q0 18 13 31.5 q13 13.5 32 13.5 q18 0 31.5 -13.5 q13.5 -13.5 13.5 -31.5 l0 0 l0 -190 l160 -132 q8 -6 12.5 -15 q4.5 -9 4.5 -20 q0 -8 -3 -15.5 q-3 -7.5 -7 -12.5 l0 0 l0 0 Z" /><glyph glyph-name="" unicode="&#xe924;" d="M521 2 q-43 -8 -86.5 -11.5 q-43.5 -3.5 -88.5 -9.5 l-183 536 l0 -559 q-43 -5 -82.5 -10.5 q-39.5 -5.5 -80.5 -11.5 l0 1024 l152 0 l208 -581 l0 581 l161 0 l0 -958 ZM836 585 q47 0 109 1.5 q62 1.5 105 1.5 l0 -160 q-53 0 -111 -0.5 q-58 -0.5 -103 -2.5 l0 -238 q71 4 141.5 9.5 q70.5 5.5 141.5 7.5 l0 -154 l-443 -35 l0 945 l443 0 l0 -160 l-283 0 l0 -215 l0 0 ZM1714 800 l-166 0 l0 -736 q-41 0 -81 -0.5 q-40 -0.5 -79 -1.5 l0 738 l-166 0 l0 160 l492 0 l0 -160 l0 0 ZM1974 596 l219 0 l0 -160 l-219 0 l0 -363 l-157 0 l0 887 l447 0 l0 -160 l-290 0 l0 -204 l0 0 ZM2524 213 q68 -1 136.5 -5.5 q68.5 -4.5 135.5 -8.5 l0 -158 q-54 3 -107 7 q-54 3 -108 6 q-54 3 -108 5 q-54 2 -109 3 l0 898 l160 0 l0 -747 l0 0 ZM2931 30 q38 -2 78 -5 q40 -3 79 -7 l0 942 l-157 0 l0 -930 ZM3789 960 l-203 -487 l203 -537 q-45 6 -90 14 q-45 8 -90 15 l-115 296 l-117 -272 q-44 8 -86 11.5 q-42 3.5 -86 9.5 l206 469 l-186 481 l172 0 l105 -269 l112 269 l175 0 l0 0 Z" /><glyph glyph-name="" unicode="&#xe925;" d="M230 960 l203 -575 l0 1 l16 -45 q33 -95 59 -167 q25 -73 42.5 -122 q17.5 -49 26.5 -74 q9 -25 9 -25 q0 0 9 -0.5 q9 -0.5 21 -1.5 q37 -1 79.5 -5 q42.5 -4 77.5 -8 q8 -1 14 -1.5 q6 -0.5 6 0.5 l-201 570 l-18 52 l-104 293 q-15 41 -25.5 72 q-10.5 31 -11.5 32 l-1 4 l-202 0 l0 0 ZM593 959 l0 -226 l-1 -226 l-18 52 l0 0 l-25 -504 q18 -50 27.5 -76 q9.5 -26 9.5 -26 q0 -1 9 -1.5 q9 -0.5 21 -0.5 q37 -2 79.5 -5.5 q42.5 -3.5 77.5 -7.5 q8 -1 14 -1.5 q6 -0.5 6 -0.5 q1 0 1 41 q0 41 0 110.5 q0 69.5 0 162.5 q0 93 0 199 l0 511 l-201 0 l0 -1 ZM230 960 l0 -512 q0 -105 0 -198 q0 -94 0 -163.5 q0 -69.5 0 -109.5 q0 -41 1 -41 q0 0 11.5 1 q11.5 1 26.5 3 q16 2 35 4 q19 2 30 3 q16 1 53 3.5 q37 2.5 43 2.5 q1 0 1.5 31.5 q0.5 31.5 0.5 185.5 l1 217 l16 -46 l5 -16 l25 504 l-8 23 l-38 104 l-1 4 l-202 0 l0 0 Z" /><glyph glyph-name="language" unicode="&#xe926;" d="M520 952 q-215 -5 -357 -148 q-142 -141 -147 -356 q5 -215 147 -356 q142 -143 357 -148 q214 5 356 148 q143 141 148 356 q-5 215 -148 356 q-142 143 -356 148 ZM687 406 q-10 -165 -58 -269.5 q-48 -104.5 -109 -108.5 q-61 4 -109.5 108.5 q-48.5 104.5 -58.5 269.5 l335 0 ZM269 406 q4 -104 26 -192 q22 -88 59 -152 q-104 45 -171.5 136 q-67.5 91 -81.5 208 l168 0 ZM938 406 q-14 -117 -81 -208 q-68 -91 -172 -136 q38 64 59 152 q23 88 27 192 l167 0 ZM354 834 q-37 -64 -59 -152 q-22 -88 -26 -192 l-168 0 q13 116 80 206 q66 90 169 136 l4 2 ZM520 868 q61 -4 109 -109 q48 -104 58 -269 l-335 0 q9 162 57 266.5 q48 104.5 108 111.5 l3 0 ZM685 834 q104 -45 171.5 -136 q67.5 -91 81.5 -208 l-167 0 q-4 102 -26 188 q-21 87 -57 151 l-3 5 Z" /><glyph glyph-name="biaoqian" unicode="&#xe704;" d="M659 411 q-51 2 -84.5 35.5 q-33.5 33.5 -35.5 84.5 q2 51 35.5 85 q33.5 34 84.5 35 q51 -1 85 -35 q34 -34 35 -85 q-1 -51 -35 -84.5 q-34 -33.5 -85 -35.5 ZM659 571 q-17 0 -28 -11.5 q-11 -11.5 -11 -28.5 q0 -17 11 -28 q11 -11 28 -11 q17 0 28.5 11 q11.5 11 11.5 28 q0 17 -11.5 28.5 q-11.5 11.5 -28.5 11.5 ZM411 -48 q-21 0 -40 7.5 q-19 7.5 -34 23.5 l-226 226 q-30 31 -30 73.5 q0 42.5 30 73.5 l429 429 q18 18 42 25.5 q24 7.5 49 3.5 l194 -32 q33 -6 56 -29 q23 -23 29 -56 l32 -194 q4 -26 -3.5 -49.5 q-7.5 -23.5 -25.5 -41.5 l-429 -429 q-15 -16 -34 -23.5 q-19 -7.5 -39 -7.5 ZM614 736 q-10 0 -17 -7 l-430 -429 q-7 -8 -7 -17.5 q0 -9.5 7 -16.5 l227 -227 q7 -7 16.5 -7 q9.5 0 17.5 7 l429 430 q8 8 7 20 l-33 194 q-3 16 -19 20 l-198 33 Z" /><glyph glyph-name="biaoqian-fill" unicode="&#xe703;" d="M942 503 l-32 194 q-6 33 -29 56 q-23 23 -56 29 l-194 32 q-25 4 -49 -3.5 q-24 -7.5 -42 -25.5 l-429 -429 q-30 -31 -30 -73.5 q0 -42.5 30 -73.5 l226 -226 q15 -16 34 -23.5 q19 -7.5 39.5 -7.5 q20.5 0 39.5 7.5 q19 7.5 34 23.5 l429 429 q18 18 25.5 41.5 q7.5 23.5 3.5 49.5 ZM659 411 q-51 2 -84.5 35.5 q-33.5 33.5 -35.5 84.5 q2 51 35.5 85 q33.5 34 84.5 35 q51 -1 85 -35 q34 -34 35 -85 q-1 -51 -35 -84.5 q-34 -33.5 -85 -35.5 Z" /><glyph glyph-name="fasong" unicode="&#xe701;" d="M959 729 q-7 9 -18 13 q-11 4 -22 2 l-831 -192 q-12 -3 -20.5 -12 q-8.5 -9 -10.5 -21 q-2 -12 3 -22.5 q5 -10.5 15 -17.5 l254 -163 q9 -6 20 -6.5 q11 -0.5 21 5.5 l290 162 q15 8 19 23.5 q4 15.5 -4 30.5 q-8 15 -23.5 19 q-15.5 4 -30.5 -4 l-269 -150 l-154 99 l655 151 l-226 -442 l-155 116 q-14 9 -30 7 q-16 -2 -26 -15.5 q-10 -13.5 -8 -29.5 q2 -16 16 -26 l4 -4 l-68 -80 l0 54 q-1 17 -12 28 q-11 11 -28 11 q-17 0 -28.5 -11 q-11.5 -11 -11.5 -28 l0 -162 q0 -13 7 -23 q7 -10 19 -15 q7 -3 14 -2 q18 0 30 14 l142 166 l125 -92 q11 -8 24 -8 q4 0 9 1 q18 4 26 20 l287 561 q5 11 4 22.5 q-1 11.5 -8 20.5 Z" /><glyph glyph-name="jiangzhang" unicode="&#xe6fc;" d="M837 248 q24 23 31 53 q7 30 -3 61 q-10 31 -33.5 51 q-23.5 20 -56.5 25 l-99 15 q-13 2 -19 14 l-45 90 q-15 29 -41 45.5 q-26 16.5 -59 16.5 q-33 0 -59.5 -16.5 q-26.5 -16.5 -40.5 -45.5 l-45 -90 q-6 -12 -19 -14 l-100 -15 q-32 -5 -56 -25 q-24 -20 -34 -51 q-10 -31 -2.5 -61 q7.5 -30 30.5 -53 l72 -70 q10 -10 8 -23 l-17 -99 q-5 -33 6.5 -61.5 q11.5 -28.5 37.5 -48.5 q30 -21 66 -21 q27 0 52 13 l89 47 q12 5 24 0 l89 -47 q25 -13 52 -13 q35 0 65 21 q27 20 38.5 48.5 q11.5 28.5 6.5 61.5 l-17 99 q-2 13 7 23 l72 70 ZM706 239 q-20 -20 -28.5 -45.5 q-8.5 -25.5 -4.5 -53.5 l17 -99 q2 -11 -2 -17 q-4 -6 -7.5 -8.5 q-3.5 -2.5 -10.5 -4.5 q-7 -2 -17 3 l-89 47 q-25 12 -52 12 q-27 0 -52 -12 l-89 -47 q-10 -5 -17 -3 q-7 2 -10 4.5 q-3 2.5 -7.5 8.5 q-4.5 6 -2.5 17 l17 99 q4 28 -4.5 53.5 q-8.5 25.5 -27.5 45.5 l-72 70 q-8 8 -8 15.5 q0 7.5 1 11.5 q1 4 5.5 9.5 q4.5 5.5 15.5 7.5 l99 15 q28 4 50 20 q22 16 35 41 l44 90 q5 9 12 12 q7 3 11 3 q4 0 11 -3 q7 -3 12 -12 l45 -90 q12 -25 34 -41 q22 -16 50 -20 l99 -15 q11 -2 15.5 -8 q4.5 -6 6 -9.5 q1.5 -3.5 1 -11 q-0.5 -7.5 -7.5 -15.5 l-72 -70 ZM512 661 q18 1 30.5 13 q12.5 12 12.5 30 l0 96 q0 18 -12.5 30.5 q-12.5 12.5 -30.5 12.5 q-18 0 -30.5 -12 q-12.5 -12 -12.5 -31 l0 -96 q0 -18 12.5 -30 q12.5 -12 30.5 -13 ZM320 533 q18 1 30.5 13 q12.5 12 12.5 30 l0 224 q0 18 -12.5 30.5 q-12.5 12.5 -30.5 12.5 q-18 0 -30.5 -12 q-12.5 -12 -12.5 -31 l0 -224 q0 -18 12.5 -30 q12.5 -12 30.5 -13 ZM704 533 q18 1 30.5 13 q12.5 12 12.5 30 l0 224 q0 18 -12.5 30.5 q-12.5 12.5 -30.5 12.5 q-18 0 -30.5 -12 q-12.5 -12 -12.5 -31 l0 -224 q0 -18 12.5 -30 q12.5 -12 30.5 -13 Z" /><glyph glyph-name="jiangzhang-fill" unicode="&#xe6f7;" d="M837 248 q24 23 31 53 q7 30 -3 61 q-10 31 -33.5 51 q-23.5 20 -56.5 25 l-99 15 q-13 2 -19 14 l-45 90 q-15 29 -41 45.5 q-26 16.5 -59 16.5 q-33 0 -59.5 -16.5 q-26.5 -16.5 -40.5 -45.5 l-45 -90 q-6 -12 -19 -14 l-100 -15 q-32 -5 -56 -25 q-24 -20 -34 -51 q-10 -31 -2.5 -61 q7.5 -30 30.5 -53 l72 -70 q10 -10 8 -23 l-17 -99 q-5 -33 6.5 -61.5 q11.5 -28.5 37.5 -48.5 q30 -21 66 -21 q27 0 52 13 l89 47 q12 5 24 0 l89 -47 q25 -13 52 -13 q35 0 65 21 q27 20 38.5 48.5 q11.5 28.5 6.5 61.5 l-17 99 q-2 13 7 23 l72 70 ZM512 661 q18 1 30.5 13 q12.5 12 12.5 30 l0 96 q0 18 -12.5 30.5 q-12.5 12.5 -30.5 12.5 q-18 0 -30.5 -12 q-12.5 -12 -12.5 -31 l0 -96 q0 -18 12.5 -30 q12.5 -12 30.5 -13 ZM320 533 q18 1 30.5 13 q12.5 12 12.5 30 l0 224 q0 18 -12.5 30.5 q-12.5 12.5 -30.5 12.5 q-18 0 -30.5 -12 q-12.5 -12 -12.5 -31 l0 -224 q0 -18 12.5 -30 q12.5 -12 30.5 -13 ZM704 533 q18 1 30.5 13 q12.5 12 12.5 30 l0 224 q0 18 -12.5 30.5 q-12.5 12.5 -30.5 12.5 q-18 0 -30.5 -12 q-12.5 -12 -12.5 -31 l0 -224 q0 -18 12.5 -30 q12.5 -12 30.5 -13 Z" /><glyph glyph-name="huo" unicode="&#xe6e9;" d="M512 -88 q-78 0 -149 30 q-69 29 -122.5 81.5 q-53.5 52.5 -82.5 121.5 q-31 71 -31 149 q0 44 10 86.5 q10 42.5 29.5 82 q19.5 39.5 47.5 73 q28 33.5 63 60.5 q21 16 40 38 q25 32 39 69 q10 28 9 68 l-2 26 q0 14 5.5 26 q5.5 12 17 21 q11.5 9 25 11 q13.5 2 26 -2 q12.5 -4 22.5 -8 l17 -8 q48 -28 79 -63 q35 -37 56 -90 q15 -37 20 -71 q5 -34 3 -64 l33 39 q15 16 35.5 19 q20.5 3 38.5 -8 q13 -8 22 -16 l10 -9 q59 -54 91.5 -127 q32.5 -73 32.5 -153 q0 -78 -31 -149 q-29 -69 -82 -121.5 q-53 -52.5 -122 -81.5 q-72 -30 -150 -30 ZM445 763 q0 -50 -14 -88 q-19 -50 -53 -91 l0 0 q-24 -29 -53 -52 q-55 -43 -86 -105.5 q-31 -62.5 -32 -132.5 q0 -62 23.5 -117 q23.5 -55 66 -97 q42.5 -42 96.5 -64 q57 -24 119 -24 q62 0 117.5 23.5 q55.5 23.5 98.5 64.5 l0 0 q42 42 65.5 97 q23.5 55 23.5 117 q0 63 -25.5 120.5 q-25.5 57.5 -72.5 100.5 l-5 5 l-29 -35 q-22 -27 -49 -46 q-15 -10 -32 -10.5 q-17 -0.5 -31.5 9 q-14.5 9.5 -21.5 25 q-7 15.5 -4 33.5 q9 47 6.5 85.5 q-2.5 38.5 -16.5 73 q-14 34.5 -36 60.5 q-22 26 -56 48 Z" /><glyph glyph-name="huo-fill" unicode="&#xe6ea;" d="M512 -88 q-78 0 -149 30 q-69 29 -122.5 81.5 q-53.5 52.5 -82.5 121.5 q-31 71 -31 149 q0 44 10 86.5 q10 42.5 29.5 82 q19.5 39.5 47.5 73 q28 33.5 63 60.5 q21 16 40 38 q25 32 39 69 q10 28 9 68 l-2 26 q0 14 5.5 26 q5.5 12 17 21 q11.5 9 25 11 q13.5 2 26 -2 q12.5 -4 22.5 -8 l17 -8 q48 -28 79 -63 q35 -37 56 -90 q15 -37 20 -71 q5 -34 3 -64 l33 39 q15 16 35.5 19 q20.5 3 38.5 -8 q13 -8 22 -16 l10 -9 q59 -54 91.5 -127 q32.5 -73 32.5 -153 q0 -78 -31 -149 q-29 -69 -82 -121.5 q-53 -52.5 -122 -81.5 q-72 -30 -150 -30 Z" /><glyph glyph-name="paihang" unicode="&#xe6e3;" d="M527 549 q-11 5 -22.5 2.5 q-11.5 -2.5 -20.5 -11.5 l-32 -32 q-12 -12 -12 -28 q0 -16 12 -28 q9 -9 20 -11 l0 -185 q0 -17 11.5 -28.5 q11.5 -11.5 28.5 -11.5 q17 0 28.5 11.5 q11.5 11.5 11.5 28.5 l0 256 q0 12 -6.5 22 q-6.5 10 -18.5 15 ZM832 425 l-120 0 l0 311 q-1 44 -30.5 73.5 q-29.5 29.5 -73.5 30.5 l-191 0 q-44 -1 -73.5 -30.5 q-29.5 -29.5 -30.5 -73.5 l0 -120 l-121 0 q-44 -1 -73.5 -30.5 q-29.5 -29.5 -30.5 -73.5 l0 -479 q1 -43 31.5 -73 q30.5 -30 73.5 -31 l640 0 q44 1 73 30.5 q29 29.5 30 73.5 l0 288 q-1 44 -30.5 73.5 q-29.5 29.5 -73.5 30.5 ZM313 9 l-120 0 q-11 0 -18 7 q-7 7 -7 17 l0 479 q0 10 7 17 q7 7 17 7 l121 0 l0 -527 ZM632 9 l-239 0 l0 727 q0 10 7 17 q7 7 17 7 l191 0 q10 0 17 -7 q7 -7 7 -17 l0 -727 ZM856 33 q0 -10 -6.5 -17 q-6.5 -7 -16.5 -7 l-121 0 l0 336 l120 0 q10 0 17 -7 q7 -7 7 -17 l0 -288 Z" /><glyph glyph-name="paihang-fill" unicode="&#xe6e4;" d="M832 425 l-120 0 l0 311 q-1 44 -30.5 73.5 q-29.5 29.5 -73.5 30.5 l-191 0 q-44 -1 -73.5 -30.5 q-29.5 -29.5 -30.5 -73.5 l0 -120 l-121 0 q-44 -1 -73.5 -30.5 q-29.5 -29.5 -30.5 -73.5 l0 -479 q1 -43 31.5 -73 q30.5 -30 73.5 -31 l640 0 q44 1 73 30.5 q29 29.5 30 73.5 l0 288 q-1 44 -30.5 73.5 q-29.5 29.5 -73.5 30.5 ZM552 256 q0 -17 -11.5 -28.5 q-11.5 -11.5 -28.5 -11.5 q-17 0 -28.5 11.5 q-11.5 11.5 -11.5 28.5 l0 185 q-11 2 -20 11 q-12 12 -12 28 q0 16 12 28 l32 32 q8 9 20 11.5 q12 2.5 23.5 -2.5 q11.5 -5 18 -15 q6.5 -10 6.5 -22 l0 -256 Z" /><glyph glyph-name="zhibo" unicode="&#xe6cb;" d="M832 680 l-257 0 l72 55 q13 11 15 27 q2 16 -8.5 29.5 q-10.5 13.5 -26.5 15.5 q-16 2 -29 -8 l-153 -119 l-92 0 l-62 94 q-10 14 -26 17 q-16 3 -30 -6 q-14 -9 -17 -25 q-3 -16 6 -30 l33 -50 l-65 0 q-44 -1 -73.5 -30.5 q-29.5 -29.5 -30.5 -73.5 l0 -509 q1 -44 30.5 -73.5 q29.5 -29.5 73.5 -30.5 l640 0 q44 1 73.5 30.5 q29.5 29.5 30.5 73.5 l0 509 q-1 44 -30.5 73.5 q-29.5 29.5 -73.5 30.5 ZM856 67 q0 -10 -7 -17 q-7 -7 -17 -7 l-640 0 q-10 0 -17 7 q-7 7 -7 17 l0 509 q0 10 7 17 q7 7 17 7 l640 0 q10 0 17 -7 q7 -7 7 -17 l0 -509 ZM310 258 l-23 0 l0 158 q0 14 -9 23 q-9 9 -23 9 q-14 0 -23 -9 q-9 -9 -9 -23 l0 -190 q0 -14 9 -23 q9 -9 23 -9 l55 0 q14 0 23 9 q9 9 9 23 q0 14 -9 23 q-9 9 -23 9 ZM390 448 q-14 0 -23 -9 q-9 -9 -9 -23 l0 -192 q0 -14 9 -23 q9 -9 23 -9 q14 0 23 9 q9 9 9 23 l0 192 q0 14 -9 23 q-9 9 -23 9 ZM604 446 q-13 4 -24.5 -1.5 q-11.5 -5.5 -15.5 -18.5 l-33 -99 l-34 99 q-4 13 -15.5 18.5 q-11.5 5.5 -24.5 1.5 q-13 -4 -18.5 -15.5 q-5.5 -11.5 -1.5 -24.5 l64 -190 q3 -10 11.5 -16 q8.5 -6 18.5 -6 l0 0 q11 0 19 6 q8 6 11 16 l63 190 q4 13 -1.5 24.5 q-5.5 11.5 -18.5 15.5 ZM768 384 q14 0 23 9 q9 9 9 23 q0 14 -9 23 q-9 9 -23 9 l-96 0 q-14 0 -23 -9 q-9 -9 -9 -23 l0 -192 q0 -14 9 -23 q9 -9 23 -9 l96 0 q14 0 23 9 q9 9 9 23 q0 14 -9 23 q-9 9 -23 9 l-64 0 l0 32 l63 0 q14 0 23 9 q9 9 9 23 q0 14 -9 23 q-9 9 -23 9 l-63 0 l0 32 l64 0 Z" /><glyph glyph-name="zhibo-fill" unicode="&#xe6cc;" d="M832 680 l-257 0 l72 55 q13 11 15 27 q2 16 -8.5 29.5 q-10.5 13.5 -26.5 15.5 q-16 2 -29 -8 l-153 -119 l-92 0 l-62 94 q-10 14 -26 17 q-16 3 -30 -6 q-14 -9 -17 -25 q-3 -16 6 -30 l33 -50 l-65 0 q-44 -1 -73.5 -30.5 q-29.5 -29.5 -30.5 -73.5 l0 -509 q1 -44 30.5 -73.5 q29.5 -29.5 73.5 -30.5 l640 0 q44 1 73.5 30.5 q29.5 29.5 30.5 73.5 l0 509 q-1 44 -30.5 73.5 q-29.5 29.5 -73.5 30.5 ZM310 194 l-55 0 q-14 0 -23 9 q-9 9 -9 23 l0 190 q0 14 9 23 q9 9 23 9 q14 0 23 -9 q9 -9 9 -23 l0 -158 l23 0 q14 0 23 -9 q9 -9 9 -23 q0 -14 -9 -23 q-9 -9 -23 -9 ZM422 224 q0 -14 -9 -23 q-9 -9 -23 -9 q-14 0 -23 9 q-9 9 -9 23 l0 192 q0 14 9 23 q9 9 23 9 q14 0 23 -9 q9 -9 9 -23 l0 -192 ZM625 406 l-63 -190 q-4 -10 -12 -16 q-8 -6 -19 -6 l0 0 q-10 0 -18.5 6 q-8.5 6 -11.5 16 l-64 190 q-4 13 1.5 24.5 q5.5 11.5 18.5 15.5 q13 4 24.5 -1.5 q11.5 -5.5 15.5 -18.5 l34 -99 l33 99 q4 13 15.5 18.5 q11.5 5.5 24.5 1.5 q13 -4 18.5 -15.5 q5.5 -11.5 2.5 -24.5 ZM767 352 q14 0 23 -9 q9 -9 9 -23 q0 -14 -9 -23 q-9 -9 -23 -9 l-63 0 l0 -32 l64 0 q14 0 23 -9 q9 -9 9 -23 q0 -14 -9 -23 q-9 -9 -23 -9 l-96 0 q-14 0 -23 9 q-9 9 -9 23 l0 192 q0 14 9 23 q9 9 23 9 l96 0 q14 0 23 -9 q9 -9 9 -23 q0 -14 -9 -23 q-9 -9 -23 -9 l-64 0 l0 -32 l63 0 Z" /><glyph glyph-name="zhuanti" unicode="&#xe6d3;" d="M832 -7 l-640 0 q-44 1 -73.5 30.5 q-29.5 29.5 -30.5 73.5 l0 447 q1 44 30.5 73.5 q29.5 29.5 73.5 30.5 l640 0 q44 -1 73.5 -30.5 q29.5 -29.5 30.5 -73.5 l0 -447 q-1 -44 -30.5 -73.5 q-29.5 -29.5 -73.5 -30.5 ZM192 568 q-10 0 -17 -7 q-7 -7 -7 -17 l0 -447 q0 -10 7 -17 q7 -7 17 -7 l640 0 q10 0 17 7 q7 7 7 17 l0 447 q0 10 -7 17 q-7 7 -17 7 l-640 0 ZM463 152 q-27 0 -51.5 14 q-24.5 14 -38.5 37.5 q-14 23.5 -14 52.5 l0 129 q0 29 14 52.5 q14 23.5 38.5 37.5 q24.5 14 52 14 q27.5 0 51.5 -14 l112 -65 q25 -14 38.5 -37.5 q13.5 -23.5 13.5 -52 q0 -28.5 -13.5 -52 q-13.5 -23.5 -38.5 -37.5 l-112 -65 q-24 -14 -52 -14 ZM463 409 q-8 0 -11.5 -2 q-3.5 -2 -7.5 -7 q-4 -5 -5 -15 l0 -129 q1 -10 5 -15 q4 -5 7 -6.5 q3 -1.5 9.5 -2.5 q6.5 -1 14.5 3 l112 65 q8 5 10 11 q2 6 2 9.5 q0 3.5 -2 9.5 q-2 6 -10 11 l-112 65 q-6 4 -12 3 ZM768 696 l-512 0 q-17 0 -28.5 11 q-11.5 11 -11.5 28.5 q0 17.5 11.5 28.5 q11.5 11 28.5 12 l512 0 q17 -1 28.5 -12 q11.5 -11 11.5 -28.5 q0 -17.5 -11.5 -28.5 q-11.5 -11 -28.5 -11 Z" /><glyph glyph-name="zhuanti-fill" unicode="&#xe6d4;" d="M192 -7 l640 0 q44 1 73.5 30.5 q29.5 29.5 30.5 73.5 l0 447 q-1 44 -30.5 73.5 q-29.5 29.5 -73.5 30.5 l-640 0 q-44 -1 -73.5 -30.5 q-29.5 -29.5 -30.5 -73.5 l0 -447 q1 -44 30.5 -73.5 q29.5 -29.5 73.5 -30.5 ZM623 289 l-165 -96 q-13 -6 -22.5 -4.5 q-9.5 1.5 -14 4.5 q-4.5 3 -10.5 10 q-6 7 -7 21 l0 192 q1 14 7 21.5 q6 7.5 11 10.5 q5 3 18 4 q8 0 17 -5 l166 -96 q11 -7 14.5 -16.5 q3.5 -9.5 3.5 -14.5 q0 -5 -3.5 -14 q-3.5 -9 -14.5 -17 ZM256 695 l512 0 q17 1 28.5 12 q11.5 11 11.5 28 q0 17 -11.5 28.5 q-11.5 11.5 -28.5 11.5 l-512 0 q-17 0 -28.5 -11.5 q-11.5 -11.5 -11.5 -28.5 q0 -17 11.5 -28 q11.5 -11 28.5 -12 Z" /><glyph glyph-name="youxi" unicode="&#xe6d5;" d="M979 282 q-6 74 -28 148 q-20 61 -50 118 q-30 57 -68 105 q-22 28 -57 58 q-35 30 -72 33 q-30 -1 -57.5 -11.5 q-27.5 -10.5 -54.5 -24.5 q-22 -11 -43 -19.5 q-21 -8.5 -38.5 -8 q-17.5 0.5 -38 8.5 q-20.5 8 -42.5 19 q-26 14 -54 24.5 q-28 10.5 -58 11.5 q-36 -3 -71.5 -33 q-35.5 -30 -57.5 -58 q-38 -48 -68 -105 q-30 -57 -49 -118 q-23 -74 -28 -148 q-6 -84 11 -165 q8 -34 23.5 -52 q15.5 -18 30.5 -25 q23 -11 51 -11 q42 1 92.5 20.5 q50.5 19.5 104.5 46.5 q43 21 85 38.5 q42 17.5 70 18.5 q27 -1 69 -18.5 q42 -17.5 85 -38.5 q54 -27 104 -46.5 q50 -19.5 93 -20.5 q27 0 50 11 q15 7 30.5 25 q15.5 18 23.5 52 q17 81 12 165 ZM889 133 q-4 -18 -12 -22 q-3 -2 -17 -2 q-14 0 -45 10 q-26 8 -55.5 21.5 q-29.5 13.5 -59.5 27.5 q-52 26 -100 45 q-48 19 -88 20 l-1 0 q-40 -1 -88 -20 q-48 -19 -101 -45 q-30 -14 -59.5 -27.5 q-29.5 -13.5 -55.5 -21.5 q-31 -10 -45 -10 q-14 0 -17 2 q-8 4 -12 22 q-20 99 -2 202 q15 87 57 169 q17 33 37.5 63 q20.5 30 42 53 q21.5 23 34.5 33 q13 10 18 11 q16 -1 35 -9 q19 -8 40 -18 q26 -14 55 -25 q29 -11 60 -12 l1 0 q32 1 61.5 12 q29.5 11 55.5 25 q20 10 39.5 18 q19.5 8 34.5 9 q5 -1 18.5 -11 q13.5 -10 34.5 -33 q21 -23 41.5 -53 q20.5 -30 37.5 -63 q42 -82 58 -169 q18 -103 -3 -202 ZM480 458 l-56 0 l0 56 q0 17 -11.5 28.5 q-11.5 11.5 -28.5 11.5 q-17 0 -28.5 -11.5 q-11.5 -11.5 -11.5 -28.5 l0 -56 l-57 0 q-17 0 -28.5 -11.5 q-11.5 -11.5 -11.5 -28.5 q0 -17 11.5 -28.5 q11.5 -11.5 28.5 -11.5 l57 0 l0 -56 q0 -17 11.5 -28.5 q11.5 -11.5 28.5 -11.5 q17 0 28.5 11.5 q11.5 11.5 11.5 28.5 l0 56 l56 0 q17 0 28.5 11.5 q11.5 11.5 11.5 28.5 q0 17 -11.5 28.5 q-11.5 11.5 -28.5 11.5 ZM640 354 l0 0 ZM600 354 q0 -17 11.5 -28.5 q11.5 -11.5 28.5 -11.5 q17 0 28.5 11.5 q11.5 11.5 11.5 28.5 q0 17 -11.5 28.5 q-11.5 11.5 -28.5 11.5 q-17 0 -28.5 -11.5 q-11.5 -11.5 -11.5 -28.5 ZM704 482 l0 0 ZM664 482 q0 -17 11.5 -28.5 q11.5 -11.5 28.5 -11.5 q17 0 28.5 11.5 q11.5 11.5 11.5 28.5 q0 17 -11.5 28.5 q-11.5 11.5 -28.5 11.5 q-17 0 -28.5 -11.5 q-11.5 -11.5 -11.5 -28.5 Z" /><glyph glyph-name="youxi-fill" unicode="&#xe6d6;" d="M979 282 q-6 74 -28 148 q-20 61 -50 118 q-30 57 -68 105 q-22 28 -57 58 q-35 30 -72 33 q-30 -1 -57.5 -11.5 q-27.5 -10.5 -54.5 -24.5 q-22 -11 -43 -19.5 q-21 -8.5 -38.5 -8 q-17.5 0.5 -38 8.5 q-20.5 8 -42.5 19 q-26 14 -54 24.5 q-28 10.5 -58 11.5 q-36 -3 -71.5 -33 q-35.5 -30 -57.5 -58 q-38 -48 -68 -105 q-30 -57 -49 -118 q-23 -74 -28 -148 q-6 -84 11 -165 q8 -34 23.5 -52 q15.5 -18 30.5 -25 q23 -11 51 -11 q42 1 92.5 20.5 q50.5 19.5 104.5 46.5 q43 21 85 38.5 q42 17.5 70 18.5 q27 -1 69 -18.5 q42 -17.5 85 -38.5 q54 -27 104 -46.5 q50 -19.5 93 -20.5 q27 0 50 11 q15 7 30.5 25 q15.5 18 23.5 52 q17 81 12 165 ZM480 378 l-56 0 l0 -56 q0 -17 -11.5 -28.5 q-11.5 -11.5 -28.5 -11.5 q-17 0 -28.5 11.5 q-11.5 11.5 -11.5 28.5 l0 56 l-57 0 q-17 0 -28.5 11.5 q-11.5 11.5 -11.5 28.5 q0 17 11.5 28.5 q11.5 11.5 28.5 11.5 l57 0 l0 56 q0 17 11.5 28.5 q11.5 11.5 28.5 11.5 q17 0 28.5 -11.5 q11.5 -11.5 11.5 -28.5 l0 -56 l56 0 q17 0 28.5 -11.5 q11.5 -11.5 11.5 -28.5 q0 -17 -11.5 -28.5 q-11.5 -11.5 -28.5 -11.5 ZM640 314 q-17 0 -28.5 11.5 q-11.5 11.5 -11.5 28.5 q0 17 11.5 28.5 q11.5 11.5 28.5 11.5 q17 0 28.5 -11.5 q11.5 -11.5 11.5 -28.5 q0 -17 -11.5 -28.5 q-11.5 -11.5 -28.5 -11.5 ZM704 442 q-17 0 -28.5 11.5 q-11.5 11.5 -11.5 28.5 q0 17 11.5 28.5 q11.5 11.5 28.5 11.5 q17 0 28.5 -11.5 q11.5 -11.5 11.5 -28.5 q0 -17 -11.5 -28.5 q-11.5 -11.5 -28.5 -11.5 Z" /><glyph glyph-name="yinyue" unicode="&#xe6d7;" d="M966 724 q0 23 -9.5 43.5 q-9.5 20.5 -27.5 35.5 q-18 15 -40 21 q-22 6 -45 2 l-415 -74 q-38 -8 -61.5 -36 q-23.5 -28 -24.5 -67 l0 -384 q-45 30 -102 31 q-78 -2 -129.5 -53.5 q-51.5 -51.5 -53.5 -129.5 q2 -78 53.5 -129.5 q51.5 -51.5 129.5 -53.5 q78 2 129.5 53.5 q51.5 51.5 53.5 129.5 q0 10 -1 19 l0 347 l463 82 l0 -219 q-45 31 -103 32 q-78 -2 -129.5 -53.5 q-51.5 -51.5 -53.5 -129.5 q2 -78 53.5 -129.5 q51.5 -51.5 129.5 -53.5 q78 2 129.5 53.5 q51.5 51.5 53.5 129.5 l0 533 ZM241 10 q-44 1 -73 30 q-29 29 -30 73 q1 44 30 73 q29 29 73 30 q40 -1 68 -25.5 q28 -24.5 34 -63.5 l0 -14 l1 0 q-1 -44 -30 -73 q-29 -29 -73 -30 ZM423 560 l0 90 q0 8 5.5 14.5 q5.5 6.5 14.5 8.5 l415 74 q7 1 12 -1 q5 -2 7.5 -4 q2.5 -2 5.5 -6.5 q3 -4.5 3 -11.5 l0 -81 l-463 -83 ZM783 88 q-44 1 -73 30 q-29 29 -30 73 q1 44 30 73 q29 29 73 30 q44 -1 73 -30 q29 -29 30 -73 q-1 -44 -30 -73 q-29 -29 -73 -30 Z" /><glyph glyph-name="yinyue-fill" unicode="&#xe6d8;" d="M966 724 q0 23 -9.5 43.5 q-9.5 20.5 -27.5 35.5 q-18 15 -40 21 q-22 6 -45 2 l-415 -74 q-38 -8 -61.5 -36 q-23.5 -28 -24.5 -67 l0 -384 q-45 30 -102 31 q-78 -2 -129.5 -53.5 q-51.5 -51.5 -53.5 -129.5 q2 -78 53.5 -129.5 q51.5 -51.5 129.5 -53.5 q78 2 129.5 53.5 q51.5 51.5 53.5 129.5 q0 10 -1 19 l0 347 l463 82 l0 -219 q-45 31 -103 32 q-78 -2 -129.5 -53.5 q-51.5 -51.5 -53.5 -129.5 q2 -78 53.5 -129.5 q51.5 -51.5 129.5 -53.5 q78 2 129.5 53.5 q51.5 51.5 53.5 129.5 l0 533 Z" /><glyph glyph-name="weixin" unicode="&#xe6ac;" d="M975 362 q-24 44 -66 78 q-32 26 -71.5 42.5 q-39.5 16.5 -83.5 22.5 q-6 46 -27 89 q-29 57 -80.5 101 q-51.5 44 -117.5 67 q-66 23 -138.5 23 q-72.5 0 -138.5 -23 q-66 -23 -117.5 -67 q-51.5 -44 -80.5 -101 q-29 -59 -29 -125 q0 -70 28 -128 q23 -47 64 -84 l-17 -105 q-3 -12 0.5 -19.5 q3.5 -7.5 10.5 -9.5 q7 -2 14 -0.5 q7 1.5 11 3.5 l116 50 q66 -23 139 -23 q20 0 40 2 q23 -40 62 -70 q42 -34 95.5 -52 q53.5 -18 112.5 -18 q36 0 72 7 l121 -37 q8 -2 15.5 -3.5 q7.5 -1.5 13 3 q5.5 4.5 7 9.5 q1.5 5 0.5 17 l-8 85 q32 29 52 64 q26 49 26 101.5 q0 52.5 -25 100.5 ZM265 257 q-17 7 -33 -1 l-44 -29 l14 33 q3 12 -1 23.5 q-4 11.5 -14 19.5 q-83 63 -82 166 q3 100 83.5 166.5 q80.5 66.5 202.5 69.5 q108 -2 185 -57 q77 -55 97 -140 q-51 -4 -97 -21.5 q-46 -17.5 -83 -46.5 q-43 -34 -66 -79 q-25 -47 -25 -99 q0 -14 2 -29 l-13 0 q-67 0 -126 24 ZM856 145 q-17 -14 -15 -36 l9 -35 l-60 28 q-7 2 -14 2 q-5 0 -9 -1 q-32 -8 -66 -8 q-46 1 -86.5 14 q-40.5 13 -71.5 38 q-30 24 -45.5 53.5 q-15.5 29.5 -15.5 62 q0 32.5 15.5 62 q15.5 29.5 45.5 52.5 q31 25 71.5 38.5 q40.5 13.5 86 13.5 q45.5 0 86 -13 q40.5 -13 72.5 -39 q30 -23 45.5 -52.5 q15.5 -29.5 15.5 -62.5 q0 -33 -16.5 -63 q-16.5 -30 -47.5 -54 ZM270 564 l0 0 ZM227 564 q1 -18 13 -30.5 q12 -12.5 30.5 -12.5 q18.5 0 30.5 12.5 q12 12.5 13 30.5 q-1 12 -6.5 21.5 q-5.5 9.5 -15.5 15.5 q-10 6 -21.5 6 q-11.5 0 -21.5 -6 q-10 -6 -16 -15.5 q-6 -9.5 -6 -21.5 ZM485 564 l0 0 ZM442 564 q0 -12 5.5 -21.5 q5.5 -9.5 15.5 -15.5 q10 -6 21.5 -6 q11.5 0 21.5 6 q10 6 16 15.5 q6 9.5 6 21.5 q0 12 -6 21.5 q-6 9.5 -16 15.5 q-10 6 -21.5 6 q-11.5 0 -21.5 -6 q-10 -6 -15.5 -15.5 q-5.5 -9.5 -5.5 -21.5 ZM613 324 l0 0 ZM570 324 q0 -19 12.5 -31 q12.5 -12 30.5 -12 q18 0 30.5 12 q12.5 12 12.5 30.5 q0 18.5 -12.5 30.5 q-12.5 12 -30.5 12 q-18 0 -30.5 -12 q-12.5 -12 -12.5 -30 ZM788 324 l0 0 ZM745 324 q0 -19 12 -31 q12 -12 30.5 -12 q18.5 0 30.5 12 q12 12 12 30.5 q0 18.5 -12 30.5 q-12 12 -30.5 12 q-18.5 0 -30.5 -12 q-12 -12 -12 -30 Z" /><glyph glyph-name="weixin-fill" unicode="&#xe6ad;" d="M717 469 l0 0 ZM373 264 q0 57 27 109 q26 49 72.5 86 q46.5 37 105 56.5 q58.5 19.5 123.5 19.5 q24 0 48 -3 q-7 32 -22 62 q-29 57 -80.5 101 q-51.5 44 -117.5 67 q-66 23 -138.5 23 q-72.5 0 -138.5 -23 q-66 -23 -117.5 -67 q-51.5 -44 -80.5 -101 q-29 -59 -29 -125 q0 -52 16 -98 l2 -8 l10 -22 q23 -47 64 -84 l-17 -105 q-3 -12 0.5 -19.5 q3.5 -7.5 10.5 -9.5 q7 -2 14 -0.5 q7 1.5 11 3.5 l116 50 l8 -2 l32 -9 q48 -12 98 -12 l11 0 l-1 2 q-27 52 -27 109 ZM485 607 q18 0 30 -12.5 q12 -12.5 12 -30.5 q0 -18 -12 -30.5 q-12 -12.5 -30.5 -12.5 q-18.5 0 -30.5 12.5 q-12 12.5 -12 30.5 q0 18 12 30.5 q12 12.5 31 12.5 ZM270 607 q19 0 31 -12.5 q12 -12.5 12 -30.5 q0 -18 -12 -30.5 q-12 -12.5 -30.5 -12.5 q-18.5 0 -30.5 12.5 q-12 12.5 -12 30.5 q0 18 12 30.5 q12 12.5 30 12.5 ZM977 167 q1 3 3 5 l7 18 l9 29 q4 21 4 43 q0 52 -25 100 q-23 44 -65.5 78 q-42.5 34 -96 51.5 q-53.5 17.5 -112.5 17.5 q-59 0 -112.5 -17.5 q-53.5 -17.5 -96 -51.5 q-42.5 -34 -65.5 -78 q-25 -48 -25 -100 q0 -52 25 -99 q23 -44 65.5 -78 q42.5 -34 96 -51.5 q53.5 -17.5 112.5 -18.5 q18 0 37 2 l17 2 l18 4 l121 -38 q9 -2 16.5 -3.5 q7.5 -1.5 13 3 q5.5 4.5 6.5 9.5 q1 5 0 17 l-7 85 q31 29 51 64 l3 7 ZM613 281 q-18 0 -30.5 12 q-12.5 12 -12.5 30.5 q0 18.5 12.5 30.5 q12.5 12 30.5 12 q18 0 30.5 -12 q12.5 -12 12.5 -30.5 q0 -18.5 -12.5 -30.5 q-12.5 -12 -30.5 -12 ZM788 367 q18 -1 30 -13 q12 -12 12 -30.5 q0 -18.5 -12 -30.5 q-12 -12 -30.5 -12 q-18.5 0 -30.5 12 q-12 12 -12 30.5 q0 18.5 12 30.5 q12 12 31 13 Z" /><glyph glyph-name="qq" unicode="&#xe6ae;" d="M700 -72 q-126 0 -188 49 q-62 -49 -188 -49 q-50 0 -86 15.5 q-36 15.5 -55 44.5 q-13 20 -14.5 44.5 q-1.5 24.5 7.5 48.5 q13 30 39 50 l-9 15 q-23 -20 -47 -23 q-31 -3 -50 21 q-17 24 -20 53.5 q-3 29.5 -2 38.5 l0 1 q5 62 43 126 q20 32 48 65 q-2 16 0 35 q4 45 31 78 q2 61 24.5 115 q22.5 54 63.5 95 q42 43 97 65.5 q55 22.5 118 23.5 l0 0 q62 -1 117 -23.5 q55 -22.5 98 -65.5 q41 -41 63.5 -95 q22.5 -54 24.5 -115 q26 -33 31 -78 q2 -19 -1 -35 q29 -33 48 -65 q39 -64 44 -126 l0 -1 q1 -9 -2 -38.5 q-3 -29.5 -20 -53.5 q-19 -24 -50 -21 q-25 3 -48 23 l-9 -15 q27 -20 39 -50 q10 -24 8.5 -48.5 q-1.5 -24.5 -14.5 -44.5 q-10 -18 -42.5 -38 q-32.5 -20 -98.5 -22 ZM522 -15 q0 0 0 0 q0 0 0 0 ZM501 -15 l0 0 ZM557 43 q10 -11 43 -22.5 q33 -11.5 100 -12.5 q32 1 50 8 q18 7 24 16 q4 5 -1 19 q-2 6 -9.5 13.5 q-7.5 7.5 -24.5 11.5 q-21 5 -28.5 25.5 q-7.5 20.5 5.5 38.5 q26 33 38 57 q12 24 16 39 q4 12 13.5 20 q9.5 8 22 9 q12.5 1 23 -5 q10.5 -6 16.5 -18 q6 -12 12 -20 l0 10 q-6 73 -84 157 q-8 9 -10 20 q-2 11 2 22 q2 4 1.5 24.5 q-0.5 20.5 -18.5 40.5 q-13 13 -13 31 l0 1 q0 49 -16.5 92 q-16.5 43 -48 74.5 q-31.5 31.5 -72 48.5 q-40.5 17 -86.5 17 q-46 0 -86.5 -17 q-40.5 -17 -72 -48.5 q-31.5 -31.5 -48.5 -74.5 q-17 -43 -17 -92 l0 -1 q1 -18 -12 -31 q-18 -20 -18.5 -40.5 q-0.5 -20.5 1.5 -24.5 q4 -11 2 -22 q-2 -11 -10 -20 q-78 -84 -84 -158 l0 -9 q6 8 11.5 20 q5.5 12 16 18 q10.5 6 23 4.5 q12.5 -1.5 22 -9 q9.5 -7.5 13.5 -19.5 q4 -15 16.5 -39.5 q12.5 -24.5 37.5 -57.5 q13 -17 5.5 -37.5 q-7.5 -20.5 -28.5 -25.5 q-17 -4 -24.5 -11.5 q-7.5 -7.5 -9.5 -13.5 q-4 -14 0 -20 q5 -8 23 -15 q18 -7 50 -8 q67 1 100 12.5 q33 11.5 43 22.5 q6 6 17.5 11 q11.5 5 27.5 6 l1 0 q16 -1 27.5 -6 q11.5 -5 17.5 -11 ZM852 192 l0 0 ZM765 431 l0 0 ZM765 433 q0 0 0 0 q0 0 0 0 ZM258 433 l0 0 Z" /><glyph glyph-name="qq-fill" unicode="&#xe6af;" d="M700 -72 q-126 0 -188 49 q-62 -49 -188 -49 q-50 0 -86 15.5 q-36 15.5 -55 44.5 q-13 20 -14.5 44.5 q-1.5 24.5 7.5 48.5 q13 30 39 50 l-9 15 q-23 -20 -47 -23 q-31 -3 -50 21 q-17 24 -20 53.5 q-3 29.5 -2 38.5 l0 1 q5 62 43 126 q20 32 48 65 q-2 16 0 35 q4 45 31 78 q2 61 24.5 115 q22.5 54 63.5 95 q42 43 97 65.5 q55 22.5 118 23.5 l0 0 q62 -1 117 -23.5 q55 -22.5 98 -65.5 q41 -41 63.5 -95 q22.5 -54 24.5 -115 q26 -33 31 -78 q2 -19 -1 -35 q29 -33 48 -65 q39 -64 44 -126 l0 -1 q1 -9 -2 -38.5 q-3 -29.5 -20 -53.5 q-19 -24 -50 -21 q-25 3 -48 23 l-9 -15 q27 -20 39 -50 q10 -24 8.5 -48.5 q-1.5 -24.5 -14.5 -44.5 q-10 -18 -42.5 -38 q-32.5 -20 -98.5 -22 Z" /><glyph glyph-name="pinglun" unicode="&#xe6b0;" d="M932 563 q-35 82 -98 145 q-63 63 -145 98 q-85 36 -178 36 q-93 0 -178 -36 q-82 -35 -145 -98 q-63 -63 -98 -145 q-36 -85 -36 -178 q0 -59 14.5 -115 q14.5 -56 42.5 -106 l-49 -79 q-9 -14 -5 -30 q4 -16 18 -25 q108 -64 283 -90 q66 -8 108.5 -10 q42.5 -2 45.5 -2 l1 0 q92 0 177 36 q81 35 144.5 98 q63.5 63 97.5 145 q36 85 36 178 q0 93 -36 178 ZM778 119 q-54 -54 -122 -82.5 q-68 -28.5 -144 -28.5 l0 0 q-17 -2 -130 10 q-113 12 -229 61 l39 63 q6 10 6 21 q0 11 -6 21 q-29 46 -43.5 96.5 q-14.5 50.5 -14.5 104.5 q0 76 28.5 144.5 q28.5 68.5 82 122 q53.5 53.5 122 82 q68.5 28.5 144.5 28.5 q76 0 144.5 -28.5 q68.5 -28.5 122 -82 q53.5 -53.5 82 -122 q28.5 -68.5 28.5 -144.5 q0 -76 -28.5 -144 q-28.5 -68 -81.5 -122 ZM353 522 q-17 0 -28.5 -11.5 q-11.5 -11.5 -11.5 -28.5 l0 -99 q0 -17 11.5 -28.5 q11.5 -11.5 28.5 -11.5 q17 0 28.5 11.5 q11.5 11.5 11.5 28.5 l0 99 q0 17 -11.5 28.5 q-11.5 11.5 -28.5 11.5 ZM672 522 q-17 0 -28.5 -11.5 q-11.5 -11.5 -11.5 -28.5 l0 -99 q0 -17 11.5 -28.5 q11.5 -11.5 28.5 -11.5 q17 0 28.5 11.5 q11.5 11.5 11.5 28.5 l0 99 q0 17 -11.5 28.5 q-11.5 11.5 -28.5 11.5 Z" /><glyph glyph-name="pinglun-fill" unicode="&#xe6b1;" d="M932 563 q-35 82 -98 145 q-63 63 -145 98 q-85 36 -178 36 q-93 0 -178 -36 q-82 -35 -145 -98 q-63 -63 -98 -145 q-36 -85 -36 -178 q0 -59 14.5 -115 q14.5 -56 42.5 -106 l-49 -79 q-9 -14 -5 -30 q4 -16 18 -25 q108 -64 283 -90 q66 -8 108.5 -10 q42.5 -2 45.5 -2 l1 0 q92 0 177 36 q81 35 144.5 98 q63.5 63 97.5 145 q36 85 36 178 q0 93 -36 178 ZM393 383 q0 -17 -11.5 -28.5 q-11.5 -11.5 -28.5 -11.5 q-17 0 -28.5 11.5 q-11.5 11.5 -11.5 28.5 l0 99 q0 17 11.5 28.5 q11.5 11.5 28.5 11.5 q17 0 28.5 -11.5 q11.5 -11.5 11.5 -28.5 l0 -99 ZM712 383 q0 -17 -11.5 -28.5 q-11.5 -11.5 -28.5 -11.5 q-17 0 -28.5 11.5 q-11.5 11.5 -11.5 28.5 l0 99 q0 17 11.5 28.5 q11.5 11.5 28.5 11.5 q17 0 28.5 -11.5 q11.5 -11.5 11.5 -28.5 l0 -99 Z" /><glyph glyph-name="shezhi" unicode="&#xe68d;" d="M991 404 l-222 385 q-12 19 -35 20 l-444 0 q-23 -1 -35 -20 l-222 -385 q-11 -20 0 -40 l222 -385 q12 -19 35 -20 l444 0 q23 1 35 20 l222 385 q11 20 0 40 ZM711 39 l-398 0 l-199 345 l199 345 l398 0 l199 -345 l-199 -345 ZM512 584 q-85 -2 -141.5 -58.5 q-56.5 -56.5 -58.5 -141.5 q2 -85 58.5 -141.5 q56.5 -56.5 141.5 -58.5 q85 2 141.5 58.5 q56.5 56.5 58.5 141.5 q-2 85 -58.5 141.5 q-56.5 56.5 -141.5 58.5 ZM512 264 q-51 1 -85 35 q-34 34 -35 85 q1 51 35 85 q34 34 85 35 q51 -1 85 -35 q34 -34 35 -85 q-1 -51 -35 -85 q-34 -34 -85 -35 Z" /><glyph glyph-name="yueliang" unicode="&#xe67d;" d="M511 -72 q-93 0 -178 36 q-82 35 -145 98 q-63 63 -98 145 q-36 85 -36 178 q0 89 32.5 170 q32.5 81 94.5 145.5 q62 64.5 141 100.5 q79 36 168 41 q11 0 20.5 -5 q9.5 -5 15.5 -15 q11 -20 0 -41 q-38 -65 -38 -141 q0 -57 21 -107.5 q21 -50.5 61 -90.5 q40 -40 91 -61 q51 -21 107 -21 q75 0 139 37 q10 6 21 5.5 q11 -0.5 20.5 -6 q9.5 -5.5 14.5 -15.5 q5 -10 4 -21 q-5 -88 -41 -166.5 q-36 -78.5 -100.5 -139.5 q-64.5 -61 -145 -93.5 q-80.5 -32.5 -169.5 -32.5 ZM426 752 q-53 -12 -100.5 -39 q-47.5 -27 -86.5 -67 q-51 -54 -78 -120.5 q-27 -66.5 -27 -140.5 q0 -76 28.5 -144.5 q28.5 -68.5 82 -122 q53.5 -53.5 122 -82 q68.5 -28.5 144.5 -28.5 q135 2 234.5 82 q99.5 80 132.5 207 q-54 -17 -110 -17 q-73 0 -140 28 q-65 28 -114.5 77.5 q-49.5 49.5 -77.5 114.5 q-28 67 -28 140 q0 58 18 112 Z" /><glyph glyph-name="taiyang" unicode="&#xe67e;" d="M943 459 l-65 64 q-7 7 -7 17 l0 101 q-1 44 -30.5 73.5 q-29.5 29.5 -73.5 30.5 l-102 0 q-9 0 -16 7 l-64 63 q-31 30 -74 29.5 q-43 -0.5 -74 -30.5 l-60 -62 q-7 -7 -17 -7 l-104 -1 q-43 -1 -72.5 -31.5 q-29.5 -30.5 -30.5 -72.5 l0 -99 q0 -9 -7 -16 l-66 -67 q-29 -30 -29 -73 q0 -43 29 -73 l64 -64 q7 -8 7 -17 l0 -104 q1 -44 30.5 -73.5 q29.5 -29.5 73.5 -30.5 l103 0 q9 0 17 -7 l63 -63 q30 -29 73 -30 l0 0 q43 0 73 30 l64 63 q7 7 17 7 l102 0 q44 1 73.5 30.5 q29.5 29.5 30.5 73.5 l0 103 q0 9 7 17 l65 64 q30 31 30 74 q0 43 -30 74 ZM886 368 l-64 -65 q-30 -31 -31 -73 l0 -103 q0 -10 -7 -17 q-7 -7 -17 -7 l-102 0 q-42 0 -73 -30 l-64 -63 q-7 -7 -16.5 -7 q-9.5 0 -17.5 7 l-63 63 q-31 30 -73 30 l-103 0 q-10 0 -17 7 q-7 7 -7 17 l0 104 q0 42 -30 73 l-64 64 q-7 7 -7 16.5 q0 9.5 7 17.5 l66 66 q30 31 30 73 l0 99 q0 10 7 16.5 q7 6.5 17 7.5 l104 1 q21 0 40 8 q19 8 33 23 l61 62 q7 7 17 7 q10 0 17 -7 l63 -63 q31 -30 73 -30 l102 0 q10 0 17 -7 q7 -7 7 -17 l0 -102 q0 -20 8 -39.5 q8 -19.5 23 -33.5 l64 -64 q7 -7 7 -17 q0 -10 -7 -17 ZM512 585 q-85 -2 -142 -59 q-57 -57 -59 -142 q2 -85 59 -142 q57 -57 142 -59 q85 2 142 59 q57 57 59 142 q-2 85 -59 142 q-57 57 -142 59 ZM512 263 q-51 1 -85.5 35.5 q-34.5 34.5 -35.5 85.5 q1 51 35.5 85.5 q34.5 34.5 85.5 35.5 q51 -1 85.5 -35.5 q34.5 -34.5 35.5 -85.5 q-1 -51 -35.5 -85.5 q-34.5 -34.5 -85.5 -35.5 Z" /><glyph glyph-name="shuaxin" unicode="&#xe678;" d="M932 562 q-35 81 -98 144 q-63 63 -144 98 q-85 36 -178 36 q-93 0 -177 -36 q-82 -35 -145 -98 q-63 -63 -98 -144 q-36 -85 -36 -178 q0 -93 36 -177 q35 -82 98 -145 q63 -63 145 -98 q84 -36 177 -36 q55 0 108.5 13 q53.5 13 102.5 38 q14 9 19 24 q5 15 -3 30 q-8 15 -23 20 q-15 5 -30 -3 q-82 -42 -174 -42 q-76 0 -144 28.5 q-68 28.5 -121.5 82 q-53.5 53.5 -82 121.5 q-28.5 68 -28.5 144 q0 76 28.5 144 q28.5 68 82 121.5 q53.5 53.5 121.5 82 q68 28.5 144 28.5 q76 0 144 -28.5 q68 -28.5 121.5 -82 q53.5 -53.5 82 -121.5 q28.5 -68 28.5 -144 q0 -12 -1 -24 l-55 0 q-21 -1 -32.5 -18 q-11.5 -17 -4.5 -36 l49 -128 q4 -12 14 -19 q10 -7 22 -7 l5 0 q20 2 32 21 q25 49 38 102.5 q13 53.5 13 108.5 q0 93 -36 178 Z" /><glyph glyph-name="menu" unicode="&#xe927;" d="M357 470 q52 1 87 36 q35 34 36 86 l0 219 q-1 52 -36 87 q-35 35 -87 36 l-219 0 q-51 -1 -86 -36 q-35 -35 -36 -87 l0 -219 q1 -52 36 -86 q35 -35 86 -36 l219 0 ZM138 863 l219 0 q22 0 37 -15 q15 -15 15 -37 l0 -219 q0 -22 -15 -36 q-15 -15 -37 -16 l-219 0 q-22 1 -36.5 15.5 q-14.5 14.5 -15.5 36.5 l0 219 q1 22 16 37 q14 15 36 15 ZM357 -56 q52 1 87 36 q35 36 36 87 l0 218 q-1 52 -36 87 q-35 35 -87 36 l-219 0 q-51 -1 -86 -36 q-35 -35 -36 -87 l0 -218 q1 -52 36 -87 q35 -35 86 -36 l219 0 ZM138 337 l219 0 q22 0 37 -15 q15 -14 15 -37 l0 -218 q0 -23 -15 -37 q-15 -15 -37 -16 l-219 0 q-22 1 -36.5 15.5 q-14.5 14.5 -15.5 37.5 l0 218 q1 23 16 37 q14 15 36 15 ZM882 -56 q52 1 87 36.5 q35 35.5 37 86.5 l0 218 q-1 52 -36 87 q-35 35 -88 36 l-218 0 q-52 -1 -86 -36 q-35 -35 -36 -87 l0 -218 q1 -52 36 -87 q34 -35 86 -36 l218 0 ZM664 337 l218 0 q23 0 38 -15 q15 -14 15 -37 l0 -218 q0 -23 -15 -37 q-15 -15 -38 -16 l-218 0 q-23 1 -37 15.5 q-14 14.5 -15 37.5 l0 218 q1 23 16 37 q13 15 36 15 ZM756 447 q24 0 47 9 q23 9 41 26 l130 130 q36 37 36 87 q0 50 -36 88 l-130 129 q-37 36 -87 36 q-50 0 -87 -36 l-130 -129 q-36 -38 -36 -88 q0 -50 36 -87 l130 -130 q17 -17 40 -26 q22 -9 46 -9 ZM756 884 q11 0 21 -4 q9 -4 16 -11 l130 -130 q16 -16 16 -37 q0 -21 -16 -37 l-130 -130 q-15 -16 -36 -16 q-21 0 -38 16 l-130 130 q-16 15 -16 36 q0 21 16 38 l130 130 q16 15 37 15 Z" /><glyph glyph-name="laminate" unicode="&#xe929;" d="M944 -56 q32 0 61 12 q28 12 50 34 q22 23 34 51 q11 30 11 61 l0 536 q-1 66 -46 111 q-44 44 -110 45 l-770 0 q-66 -1 -110 -45 q-44 -45 -46 -111 l0 -536 q0 -31 11 -61 q12 -28 34 -51 q22 -22 51 -34 q28 -12 60 -12 l770 0 ZM944 709 q30 0 51 -20 q20 -20 20 -51 l0 -536 q0 -30 -20 -50 q-21 -20 -51 -21 l-770 0 q-30 1 -50 21 q-20 20 -21 50 l0 536 q1 31 21 51 q20 20 50 20 l770 0 ZM1107 146 q63 2 106 44 q43 43 45 107 l0 504 q-2 64 -45 106 q-43 43 -106 45 l-723 0 q-65 -2 -107 -45 q-43 -42 -44 -106 q0 -18 12 -30 q11 -13 31 -13 q17 0 29 13 q12 12 12 30 q1 28 20 47 q19 18 47 19 l723 0 q13 0 24 -5 q13 -5 23 -14 q9 -10 13 -21 q6 -13 6 -26 l0 -504 q-1 -28 -19 -47 q-19 -18 -47 -19 q-18 0 -31 -13 q-12 -12 -12 -30 q0 -18 12 -30 q13 -11 31 -12 Z" /><glyph glyph-name="jiantoushang" unicode="&#xe66f;" d="M152 224 q0 -16 12 -28 q12 -12 28 -12 q16 0 28 12 l292 291 l292 -291 q12 -12 28 -12 q16 0 28 12 q12 12 12 28 q0 16 -12 28 l-320 320 q-12 12 -28 12 q-16 0 -28 -12 l-320 -320 q-12 -12 -12 -28 Z" /></font>
</defs>
</svg>
